<svg width="234" height="267" viewBox="0 0 234 267" fill="none" xmlns="http://www.w3.org/2000/svg">
<path d="M0 27.5344C0 12.3276 12.0044 0 26.8125 0H207.187C221.996 0 234 12.3276 234 27.5344V239.466C234 254.672 221.996 267 207.187 267H26.8125C12.0044 267 0 254.672 0 239.466V27.5344Z" fill="#8CC63F"/>
<path d="M6 28.6909C6 16.1591 15.5008 6 27.2206 6H206.779C218.499 6 228 16.1591 228 28.6909V150H6V28.6909Z" fill="white"/>
<path d="M145.244 72.6764C143.756 72.6764 142.595 72.8736 141.528 73.2792C137.421 74.8622 135.378 79.7295 135.542 83.5011C135.708 87.3487 138.26 89.6781 142.37 89.7401C144.91 89.7795 147.217 88.8585 148.883 87.191C150.935 85.1404 152.128 81.98 151.996 78.938C151.824 75.0171 149.275 72.6764 145.244 72.6764ZM139.54 83.8165C139.289 80.9181 140.835 75.5664 144.808 75.2255C144.893 75.2171 144.969 75.2143 145.045 75.2143C147.372 75.2875 147.907 77.3409 148.012 78.5746C148.257 81.4082 146.673 86.8727 142.768 87.2079C142.698 87.2191 142.627 87.2191 142.554 87.222C140.102 87.1403 139.628 84.8277 139.54 83.8165Z" fill="black"/>
<path d="M186.928 73.4736C186.18 73.0313 185.183 72.7497 184.128 72.6792C183.908 72.668 183.686 72.6652 183.47 72.668C182.266 72.6483 181.006 72.8792 179.746 73.3665C176.051 74.7974 173.52 78.3916 173.289 82.5209C173.172 84.6024 173.762 86.4136 174.993 87.7543C176.109 88.974 177.732 89.5514 179.424 89.6753C179.424 89.6753 179.749 89.7091 180.263 89.7007C181.362 89.7148 183.859 89.5796 185.636 88.2247C186.554 87.5234 186.826 85.9376 186.095 85.0475L186.086 85.0531C186.083 85.0531 186.083 85.0475 186.083 85.0475C186.083 85.0475 183.765 86.8586 181.146 86.9685C180.833 86.9628 180.515 86.9431 180.184 86.884C177.39 86.4023 177.162 83.8306 177.159 83.1293C177.337 83.1321 177.515 83.1349 177.691 83.1321C181.444 83.1405 184.794 82.1744 186.671 80.552C187.875 79.5126 188.591 78.5606 188.714 76.7635C188.872 74.5101 186.937 73.4792 186.928 73.4736ZM177.425 80.8365C178.01 78.3747 179.641 76.7973 180.272 76.3748C181.234 75.7269 183.397 74.7467 184.727 75.7157C185.051 75.9551 185.253 76.4734 185.212 76.9607C185.133 77.9071 184.306 78.876 182.941 79.614C181.041 80.6449 179.071 80.8421 177.907 80.8506C177.714 80.8477 177.551 80.8393 177.425 80.8365Z" fill="black"/>
<path d="M51.3161 63.0967C51.0705 63.0939 50.8338 63.0939 50.597 63.0967C47.1067 63.0967 44.967 63.5474 44.967 63.5474L40.2811 89.188C40.2811 89.188 42.529 89.188 42.6167 89.188C43.7363 89.188 44.508 88.6782 44.7419 87.3938C44.9202 86.4079 46.2765 78.9746 46.3613 78.4957C47.3084 78.5493 48.1795 78.5802 49.1851 78.5746C55.4992 78.5605 59.2876 74.7495 60.0213 70.9723C61.062 65.6008 56.5164 63.1502 51.3161 63.0967ZM46.8962 75.572C46.905 75.572 48.6472 65.9895 48.6472 65.9895C48.6472 65.9895 49.3429 65.812 50.6233 65.798C50.8279 65.8008 51.0442 65.8064 51.2752 65.8177C53.8154 65.9501 56.5573 67.0739 55.7359 70.8512C55.391 72.4313 54.1983 73.9834 52.7952 74.7636C50.7519 75.9072 47.6563 75.6678 46.8962 75.572Z" fill="black"/>
<path d="M110.087 72.8707C106.856 72.6257 105.012 74.6199 103.825 76.4508C103.702 75.3016 103.319 74.4002 102.668 73.7805C102.033 73.1749 101.148 72.8736 100.13 72.8567C97.3298 72.8031 95.5292 74.5354 94.1553 76.9043C94.1699 76.8142 94.1845 76.7184 94.1962 76.6283C94.4388 74.9495 94.3423 74.3185 93.8162 73.6622C93.8162 73.6622 93.3455 73.0003 91.9863 73.0566C91.4981 73.0397 90.8784 73.1186 90.092 73.3806C90.5393 73.8679 90.5364 74.7889 90.1213 77.6113C90.095 77.7972 88.1686 88.4275 88.1686 88.4275C88.1686 88.4275 88.0429 89.1486 88.8234 89.1486H91.8372C91.8372 89.1486 92.2318 86.9149 92.302 86.5488C92.6411 85.0672 92.9012 83.5264 93.8571 81.3603C95.8215 76.9184 98.8937 75.0903 99.8262 76.1072C100.142 76.4536 100.177 77.3127 99.9928 78.5014L98.1892 88.4275C98.1892 88.4275 98.0665 89.1486 98.847 89.1486H101.855L102.244 86.9825C102.887 83.2673 103.796 81.1632 103.796 81.1632C105.529 77.1522 107.868 75.4678 108.868 75.7917C109.107 75.8706 109.54 76.0931 109.715 76.848C109.818 77.3127 109.818 78.0732 109.674 78.9239C109.511 80.09 108.745 83.3377 108.391 85.7742C108.151 87.4557 108.245 88.0839 108.771 88.743C108.771 88.743 109.242 89.4049 110.601 89.3486C111.086 89.3683 111.709 89.2894 112.492 89.0275C112.045 88.543 111.99 87.5121 112.449 84.7798C112.729 83.1152 113.127 81.3294 113.127 81.3294C113.691 78.6929 113.881 76.4395 113.287 75.0509C112.565 73.358 110.858 72.9327 110.087 72.8707Z" fill="black"/>
<path d="M166.843 72.8735C163.645 72.6313 161.619 74.5664 160.204 76.9465C160.222 76.8423 160.24 76.7353 160.254 76.6311C160.497 74.9523 160.359 74.1861 159.874 73.6651C158.942 72.6595 156.936 73.1214 156.153 73.3834C156.6 73.8707 156.6 74.7917 156.182 77.6141C156.127 77.9944 156.059 78.4056 155.986 78.783H155.995L154.25 88.4303C154.25 88.4303 154.124 89.1514 154.908 89.1514H157.91C157.91 89.1514 158.304 86.9177 158.377 86.5516C158.717 85.07 159.102 83.4841 160.044 81.3125C161.982 76.8085 164.844 75.4368 165.726 75.817C166.083 75.9719 166.352 76.3184 166.469 76.8536C166.571 77.3183 166.574 78.0789 166.425 78.9295C166.264 80.0956 165.495 83.3433 165.145 85.7798C164.902 87.4614 164.998 88.0895 165.522 88.7486C165.522 88.7486 165.995 89.4105 167.352 89.3542C167.837 89.3739 168.459 89.295 169.246 89.0331C168.801 88.5486 168.743 87.5177 169.202 84.7855C169.483 83.1208 169.88 81.335 169.88 81.335C170.444 78.6985 170.646 76.4395 170.041 75.0565C169.304 73.3608 167.53 72.9242 166.843 72.8735Z" fill="black"/>
<path d="M74.6431 73.4989C73.5176 73.5665 72.1204 73.682 72.1204 73.682L71.7813 75.5861C71.6731 76.1748 71.5386 76.8142 71.4013 77.4479C71.1235 78.507 70.7523 79.6788 70.1267 81.0928C68.1624 85.5348 65.5344 86.8276 64.5464 86.622C64.2219 86.5544 63.8741 86.2868 63.7016 85.5545C63.6022 85.0841 63.5934 84.3236 63.7425 83.4786C63.9033 82.3096 64.6721 79.0591 65.0229 76.6227C65.2655 74.9467 65.169 74.3129 64.6429 73.6538C64.6429 73.6538 64.1722 72.9919 62.8159 73.051C62.3248 73.0313 61.7051 73.1074 60.9217 73.3721C61.3689 73.8594 61.4244 74.8875 60.9655 77.6226C60.6878 79.2845 60.5533 79.6478 60.2844 81.0674C59.9862 82.6842 59.6735 84.4193 59.7962 86.0108C59.9512 87.9825 61.366 89.3317 63.3304 89.5261C66.4231 89.8274 68.5453 87.8248 69.9543 85.5207C69.9397 85.6052 69.928 85.6869 69.9163 85.7685C69.6766 87.4501 69.7701 88.0783 70.2963 88.7346C70.2963 88.7346 70.7698 89.3993 72.1262 89.3402C72.6144 89.3627 73.2341 89.281 74.0204 89.019C73.5702 88.5318 73.5732 87.6135 73.9883 84.7883C74.0467 84.4024 74.111 83.9968 74.1841 83.6166H74.1783L75.2803 77.4648L75.7772 74.7523C75.8971 74.0735 75.6603 73.4397 74.6431 73.4989Z" fill="black"/>
<path d="M132.183 73.4989C131.06 73.5665 129.663 73.682 129.663 73.682L129.321 75.5861C129.213 76.1748 129.081 76.8142 128.944 77.4479C128.666 78.507 128.295 79.6788 127.669 81.0928C125.705 85.5348 123.077 86.8276 122.089 86.622C121.765 86.5544 121.42 86.2868 121.244 85.5545C121.142 85.0841 121.139 84.3236 121.285 83.4786C121.449 82.3096 122.215 79.0591 122.571 76.6227C122.811 74.9467 122.715 74.3129 122.191 73.6538C122.191 73.6538 121.718 72.9919 120.364 73.051C119.876 73.0313 119.254 73.1074 118.47 73.3721C118.915 73.8594 118.973 74.8875 118.511 77.6226C118.233 79.2845 118.102 79.6478 117.833 81.0674C117.535 82.6842 117.219 84.4193 117.342 86.0108C117.497 87.9825 118.915 89.3317 120.876 89.5261C123.969 89.8274 126.091 87.8248 127.5 85.5207C127.485 85.6052 127.474 85.6869 127.462 85.7685C127.222 87.4501 127.319 88.0783 127.842 88.7346C127.842 88.7346 128.315 89.3993 129.672 89.3402C130.16 89.3627 130.78 89.281 131.566 89.019C131.122 88.5318 131.122 87.6135 131.54 84.7883C131.592 84.4024 131.663 83.9968 131.736 83.6166H131.727L132.829 77.4648L133.323 74.7523C133.446 74.0735 133.206 73.4397 132.183 73.4989Z" fill="black"/>
<path d="M86.4702 62.8714C86.3767 62.8686 86.2685 62.8798 86.1399 62.8996L83.1057 63.5052L78.9781 86.0615C78.7706 87.3487 78.8495 87.867 79.1097 88.3712C79.3611 88.8106 79.7586 89.0585 80.1912 89.1965C80.659 89.3373 81.1442 89.3711 81.5593 89.3599C82.3573 89.3824 83.0033 89.2162 83.0033 89.2162C83.0033 89.2162 82.5941 87.9769 82.9361 86.0277L86.9467 64.0967C87.0607 63.4657 87.1279 62.8714 86.4702 62.8714Z" fill="black"/>
<path d="M116.491 55.6043C82.6116 55.6043 52.3509 47.6217 31.8886 35.3718C31.7366 35.2816 31.5963 35.183 31.4472 35.0732C31.2572 34.9267 31.2105 34.6648 31.3069 34.4479C31.4005 34.2169 31.6373 34.0535 31.9033 34.1042C32.0816 34.1409 32.2891 34.2 32.444 34.2535C55.1221 41.6671 84.5087 45.8584 116.491 45.8584C148.471 45.8584 177.855 41.6671 200.538 34.2563C200.685 34.2028 200.892 34.1437 201.082 34.1042C201.334 34.0535 201.567 34.2169 201.684 34.4479C201.76 34.6648 201.731 34.9267 201.515 35.0732C201.386 35.183 201.237 35.2816 201.091 35.3718C180.629 47.6358 150.365 55.6043 116.491 55.6043Z" fill="#8DC63F"/>
<path d="M138.9 118.956C138.894 118.626 138.906 118.198 138.099 118.198H128.049V122.848C128.049 123.722 128.245 124.195 128.561 124.457C129.33 125.082 131.043 125.046 133.019 125.048C135.761 125.048 137.623 124.837 138.117 124.753C138.991 124.617 138.9 123.82 138.9 123.82V118.956ZM136.793 123.389C136.793 123.389 135.01 123.553 133.165 123.553C131.914 123.553 130.967 123.586 130.482 123.22C130.277 123.068 130.16 122.795 130.16 122.285V119.68H136.793V123.389Z" fill="black"/>
<path d="M144.706 113.069C145.475 113.7 147.445 113.652 149.418 113.655C152.16 113.655 154.39 113.429 154.925 113.37C155.799 113.232 155.709 112.435 155.709 112.435V108.162C155.703 107.841 155.714 107.404 154.911 107.404H144.194V111.466C144.194 112.334 144.387 112.807 144.706 113.069ZM146.296 108.9H153.61V111.956C153.61 111.956 151.549 112.122 149.699 112.122C148.45 112.117 147.103 112.153 146.62 111.787C146.416 111.632 146.296 111.362 146.296 110.852V108.9Z" fill="black"/>
<path d="M87.467 117.666C87.467 117.666 87.3823 118.64 87.6278 118.916C87.812 119.122 88.2417 119.164 88.5778 119.164H94.7457V124.764C94.7457 124.764 94.7837 125.144 95.0907 125.229C95.7075 125.412 96.6838 124.874 96.8797 124.764V119.164H102.957C103.512 119.156 103.74 119.116 103.904 118.843C104.223 118.314 104.176 117.666 104.176 117.666H87.467Z" fill="black"/>
<path d="M90.5217 114.838C91.2905 115.463 93.2608 115.418 95.2368 115.421C97.9759 115.421 100.241 115.195 100.776 115.133C101.65 114.995 101.563 114.198 101.563 114.198V108.565C101.557 108.241 101.566 107.81 100.762 107.81H90.0102V113.224C90.0102 114.103 90.2031 114.579 90.5217 114.838ZM92.1412 109.306H99.4257V113.722C99.4257 113.722 97.362 113.888 95.5145 113.883C94.2663 113.88 92.9509 113.917 92.4657 113.553C92.261 113.398 92.1441 113.128 92.1441 112.618V109.306H92.1412Z" fill="black"/>
<path d="M72.7284 113.787H83.5032C84.0469 113.784 84.2691 113.739 84.4269 113.472C84.7426 112.953 84.6929 112.322 84.6929 112.322H81.7347C81.8311 111.92 82.1907 110.37 82.3164 108.816H83.2489C83.7897 108.81 84.0118 108.765 84.1726 108.5C84.4854 107.979 84.4415 107.345 84.4415 107.345H71.983C71.983 107.345 71.907 108.297 72.1408 108.57C72.3396 108.796 72.6904 108.81 73.0178 108.816H73.9795C74.2513 110.508 74.3098 111.905 74.3215 112.322H71.638C71.638 112.322 71.5591 113.272 71.7988 113.545C71.9917 113.77 72.398 113.784 72.7284 113.787ZM80.1562 108.816C80.1211 109.894 79.8083 112.044 79.7323 112.322H76.3239C76.3326 111.92 76.3414 110.52 76.1397 108.816H80.1562Z" fill="black"/>
<path d="M118.146 117.739H114.229C114.229 117.739 114.144 118.711 114.389 118.987C114.571 119.19 115.003 119.232 115.34 119.237H118.149V120.863C118.149 120.863 118.16 121.223 118.485 121.319C119.087 121.496 120.049 120.973 120.236 120.863V108.542C120.236 108.111 120.268 107.52 119.903 107.173C119.742 107.021 119.376 106.99 119.084 107.021C119.084 107.021 118.523 107.086 117.994 107.303C118.134 107.793 118.149 108.559 118.149 109.176V117.739H118.146Z" fill="black"/>
<path d="M113.904 123.558C113.904 123.558 113.203 123.55 112.916 123.372C112.659 123.215 112.522 122.93 112.522 122.449V121.077C112.519 120.646 112.548 120.049 112.18 119.705C112.016 119.556 111.653 119.525 111.352 119.556C111.352 119.556 110.785 119.618 110.253 119.84C110.393 120.33 110.411 121.091 110.405 121.713V122.882C110.405 123.248 110.446 123.564 110.531 123.826C110.619 124.088 110.765 124.308 110.975 124.479C111.186 124.648 111.472 124.781 111.832 124.86C112.191 124.941 112.823 125.017 113.387 125.026C117.666 125.186 120.069 124.781 120.069 124.781C120.622 124.679 120.625 124.336 120.63 124.046V123.268C120.633 123.265 117.622 123.761 113.904 123.558Z" fill="black"/>
<path d="M69.4632 115.193C69.4632 115.193 69.3813 116.167 69.624 116.443C69.8081 116.652 70.2378 116.688 70.5769 116.691H77.0722V118.13H72.3893C72.3893 118.13 72.3133 119.077 72.5471 119.353C72.743 119.578 73.1493 119.592 73.4796 119.598H81.7317V120.899H72.4477V123.195C72.4477 123.564 72.4653 123.832 72.5705 124.136C72.6611 124.395 72.8044 124.612 73.0178 124.781C73.2282 124.95 73.5732 125.079 73.9386 125.144C75.0289 125.341 79.2704 125.26 79.2704 125.26C82.3778 125.265 83.6406 124.984 83.6406 124.984C84.1901 124.877 84.196 124.539 84.1989 124.251V123.468C84.1989 123.468 82.3252 123.865 76.7799 123.806H76.0052C75.5989 123.806 75.1137 123.758 74.8564 123.578C74.6489 123.432 74.57 123.13 74.5787 122.747V122.336H83.2109C83.7809 122.257 83.8598 121.837 83.8657 121.547V118.984C83.8627 118.66 83.7926 118.13 82.9887 118.13H79.2061V116.691L85.6605 116.688C86.2159 116.685 86.4439 116.64 86.6076 116.37C86.9262 115.843 86.8795 115.193 86.8795 115.193H69.4632Z" fill="black"/>
<path d="M158.652 115.193H141.239C141.239 115.193 141.157 116.167 141.403 116.443C141.584 116.652 142.014 116.688 142.353 116.691H148.848V118.13H144.165C144.165 118.13 144.089 119.077 144.323 119.353C144.519 119.578 144.922 119.592 145.252 119.598H153.507V120.899H144.223V123.195C144.223 123.564 144.241 123.832 144.346 124.136C144.434 124.395 144.58 124.612 144.793 124.781C145.004 124.95 145.352 125.079 145.714 125.144C146.802 125.341 151.046 125.26 151.046 125.26C154.153 125.265 155.416 124.984 155.416 124.984C155.966 124.877 155.972 124.539 155.978 124.251V123.468C155.978 123.468 154.101 123.865 148.559 123.806H147.787C147.378 123.806 146.892 123.758 146.638 123.578C146.428 123.432 146.352 123.13 146.357 122.747V122.336H154.989C155.56 122.257 155.638 121.837 155.644 121.547V118.984C155.638 118.66 155.571 118.13 154.767 118.13H150.982V116.691L157.436 116.688C157.992 116.685 158.22 116.64 158.383 116.37C158.699 115.84 158.652 115.193 158.652 115.193Z" fill="black"/>
<path d="M111.06 116.218C112.235 116.201 114.562 116.094 115.977 115.646C116.178 115.581 116.377 115.548 116.415 115.195C116.456 114.804 116.418 114.243 116.418 114.243C116.418 114.243 113.621 114.719 110.279 114.719H105.564C105.564 114.719 105.48 115.688 105.725 115.967C105.909 116.17 106.336 116.212 106.675 116.218H108.909C108.455 118.852 106.74 120.637 106.74 120.637C107.283 121.142 107.716 121.187 107.716 121.187C108.16 121.243 108.473 120.922 108.473 120.922C108.473 120.922 110.087 119.542 110.814 117.246C110.914 116.922 111.002 116.581 111.06 116.218Z" fill="black"/>
<path d="M110.838 113.719C113.352 113.691 115.173 112.407 115.173 110.373V110.365C115.173 108.334 113.349 107.049 110.838 107.018C108.324 107.047 106.503 108.331 106.503 110.365V110.373C106.503 112.407 108.324 113.694 110.838 113.719ZM108.569 110.368C108.569 109.461 109.268 108.523 110.838 108.523C112.408 108.523 113.109 109.461 113.109 110.368V110.376C113.109 111.283 112.41 112.221 110.838 112.221C109.265 112.221 108.569 111.283 108.569 110.376V110.368Z" fill="black"/>
<path d="M130.563 116.226C131.528 116.793 132.221 115.102 132.221 115.102C132.221 115.102 131.639 114.883 130.563 113.717C130.221 113.353 129.777 112.776 129.409 112.325C129.409 112.325 129.046 111.858 128.467 111.196C128.769 110.286 128.991 109.275 129.055 108.154C129.055 108.154 129.067 107.776 128.824 107.63C128.336 107.323 127.205 107.571 127.006 107.63C126.857 113.111 123.042 115.888 123.042 115.888C123.042 115.888 123.405 116.404 124.027 116.615C124.384 116.736 124.752 116.68 125.281 116.235C125.281 116.235 126.62 115.083 127.705 113.004C127.985 113.334 128.204 113.629 128.508 114.049C129.865 115.939 130.563 116.226 130.563 116.226Z" fill="black"/>
<path d="M133.262 116.446C133.262 116.446 133.291 116.818 133.574 116.9C134.141 117.074 135.036 116.553 135.214 116.446V112.294H136.93V116.694C136.93 116.694 136.959 117.066 137.24 117.145C137.807 117.322 138.704 116.801 138.883 116.688V108.523C138.88 108.097 138.909 107.506 138.57 107.159C138.418 107.007 138.076 106.982 137.804 107.01C137.804 107.01 137.278 107.072 136.781 107.289C136.913 107.776 136.93 108.537 136.93 109.154V110.815H135.214V108.796C135.214 108.371 135.246 107.776 134.901 107.433C134.752 107.283 134.416 107.255 134.138 107.283C134.138 107.283 133.609 107.345 133.118 107.562C133.247 108.052 133.267 108.813 133.262 109.427V116.446Z" fill="black"/>
<path d="M179.109 203.185C175.999 199.872 170.362 195.234 165.557 191.968C166.681 188.66 167.209 185.157 167.209 181.46C167.209 181.013 167.146 180.631 166.807 180.409C166.651 180.308 166.46 180.256 166.246 180.227C166.032 180.198 165.772 180.19 165.464 180.19C165.464 180.19 165.463 180.19 165.463 180.19L160.57 180.122L160.317 180.118V180.372C160.317 186.181 159.068 190.947 156.527 195.23C153.983 199.517 150.135 203.336 144.913 207.236L144.694 207.399L144.876 207.603L147.73 210.796C147.924 211.025 148.112 211.204 148.316 211.315C148.53 211.433 148.75 211.47 148.987 211.431C149.215 211.394 149.448 211.289 149.698 211.145C149.95 211 150.239 210.802 150.578 210.565L150.578 210.565C156.216 206.605 160.281 202.373 163.023 197.672C167.443 200.98 172.422 205.446 176.152 209.842L176.272 209.983L176.442 209.909C177.479 209.46 178.385 208.921 179.071 208.341C179.752 207.764 180.24 207.126 180.394 206.473L180.394 206.472C180.625 205.473 180.225 204.371 179.109 203.185ZM179.109 203.185L178.927 203.356L179.109 203.185C179.109 203.185 179.109 203.185 179.109 203.185ZM186.79 238.608L186.8 238.612L186.811 238.615C187.546 238.836 188.51 238.794 189.454 238.649C190.406 238.501 191.371 238.243 192.127 238.002L192.301 237.947V237.764V215.868C192.301 215.313 192.218 214.868 191.933 214.573C191.646 214.274 191.214 214.19 190.691 214.19H185.523H185.273V214.44V221.466H163.741V215.868C163.741 215.313 163.658 214.871 163.385 214.576C163.108 214.275 162.692 214.19 162.199 214.19H157.031H156.781V214.44V233.072C156.781 234.753 157.035 235.84 157.75 236.593C158.454 237.334 159.564 237.703 161.121 238.075L161.122 238.075C165.231 239.034 168.928 239.17 173.963 239.17C178.013 239.17 182.329 238.769 185.922 238.166C186.031 238.254 186.154 238.325 186.278 238.387C186.44 238.468 186.618 238.539 186.785 238.606L186.79 238.608ZM201.957 186.832V186.582H201.707H192.165V180.236C192.165 179.683 192.083 179.248 191.79 178.968C191.501 178.69 191.068 178.626 190.555 178.626H185.387H185.137V178.876V209.136C185.137 209.786 185.281 210.325 185.547 210.762C185.813 211.199 186.191 211.518 186.635 211.74C187.318 212.081 188.301 212.088 189.26 211.968C190.232 211.847 191.233 211.587 191.991 211.346L192.165 211.291V211.108V203.266H200.279C200.572 203.266 200.826 203.253 201.039 203.21C201.255 203.166 201.448 203.087 201.599 202.941C201.752 202.795 201.839 202.605 201.89 202.383C201.94 202.164 201.957 201.9 201.957 201.588V198.188V197.938H201.707H192.165V191.91H200.279C200.572 191.91 200.826 191.897 201.039 191.854C201.255 191.81 201.448 191.731 201.599 191.585C201.752 191.439 201.839 191.249 201.89 191.027C201.94 190.808 201.957 190.544 201.957 190.232V186.832ZM164.571 232.761L164.571 232.761L164.567 232.76C164.121 232.658 163.968 232.572 163.883 232.432C163.836 232.355 163.798 232.241 163.774 232.054C163.749 231.867 163.741 231.625 163.741 231.304V226.862H185.273V232.728C182.093 233.314 178.975 233.638 175.663 233.638C170.768 233.638 167.259 233.433 164.571 232.761Z" fill="white" stroke="white" stroke-width="0.5"/>
<path d="M106.4 199.57C111.011 202.745 115.995 207.211 119.864 211.48L119.99 211.618L120.158 211.537C121.161 211.053 122.066 210.462 122.751 209.839C123.426 209.225 123.916 208.552 124.034 207.894C124.264 206.888 123.785 205.786 122.674 204.675C119.432 201.433 113.863 196.998 108.925 193.931C110.185 190.086 110.847 186.042 110.847 181.8C110.847 181.353 110.784 180.971 110.445 180.749C110.29 180.648 110.098 180.596 109.885 180.567C109.67 180.538 109.41 180.53 109.103 180.53C109.103 180.53 109.102 180.53 109.101 180.53L104.209 180.462L103.955 180.458V180.712C103.955 186.932 102.705 192.143 100.161 196.767C97.6165 201.393 93.7688 205.448 88.5518 209.344L88.3331 209.507L88.515 209.711L91.3688 212.904C91.5625 213.133 91.751 213.312 91.9546 213.423C92.1682 213.541 92.3883 213.578 92.6261 213.539C92.8533 213.502 93.0862 213.397 93.3367 213.253C93.5885 213.108 93.8773 212.91 94.2165 212.673C94.2166 212.673 94.2167 212.673 94.2168 212.673L106.4 199.57ZM101.009 216.434H100.759V216.684V220.016C100.759 220.63 100.839 221.106 101.162 221.406C101.48 221.701 101.966 221.762 102.573 221.762H130.475V236.472C130.475 237.798 131.147 238.627 132.037 239.073C132.722 239.452 133.707 239.475 134.658 239.355C135.625 239.233 136.613 238.955 137.342 238.678L137.503 238.616V238.444V218.588C137.503 217.839 137.325 217.276 136.897 216.91C136.479 216.553 135.876 216.434 135.145 216.434H101.009ZM137.329 213.454L137.503 213.399V213.216V180.236C137.503 179.683 137.421 179.248 137.129 178.968C136.839 178.69 136.407 178.626 135.893 178.626H130.725H130.475V178.876V211.244C130.475 211.894 130.62 212.433 130.886 212.87C131.152 213.307 131.53 213.626 131.974 213.848C132.657 214.189 133.64 214.196 134.598 214.076C135.57 213.955 136.572 213.695 137.329 213.454Z" fill="white" stroke="white" stroke-width="0.5"/>
<path d="M85.97 205.26V205.01H85.72H59.722V193.836C59.722 193.286 59.641 192.859 59.3397 192.594C59.0483 192.338 58.6152 192.294 58.112 192.294H52.944H52.694V192.544V205.01H32H31.75V205.26V208.524C31.75 209.128 31.81 209.606 32.1122 209.908C32.4145 210.21 32.8916 210.27 33.496 210.27H84.224C84.8284 210.27 85.3055 210.21 85.6078 209.908C85.91 209.606 85.97 209.128 85.97 208.524V205.26ZM40.976 179.782H40.726V180.032V183.296V183.311C40.726 183.655 40.726 183.938 40.7497 184.159C40.7737 184.381 40.8255 184.59 40.9699 184.748C41.1172 184.909 41.3208 184.975 41.5431 185.007C41.7646 185.038 42.0507 185.042 42.404 185.042H69.9058C70.085 191.014 69.4715 195.418 67.9382 200.151L67.8505 200.422L68.1302 200.474L72.1422 201.222L72.1422 201.222L72.1469 201.223C72.5567 201.291 72.8894 201.332 73.1613 201.33C73.4354 201.328 73.6713 201.281 73.8708 201.152C74.0705 201.023 74.2023 200.831 74.3082 200.603C74.4125 200.378 74.5023 200.093 74.6035 199.756L74.6037 199.755C75.9034 195.377 76.654 191.409 76.654 183.024C76.654 181.855 76.4682 181.023 75.9754 180.491C75.4768 179.953 74.722 179.782 73.752 179.782H40.976ZM74.75 227.632C74.75 223.577 73.0658 220.343 70.234 218.128C67.4085 215.917 63.4567 214.734 58.928 214.734C54.3992 214.734 50.4641 215.917 47.6554 218.128C44.8405 220.343 43.174 223.578 43.174 227.632C43.174 231.652 44.8408 234.887 47.655 237.11C50.4634 239.329 54.3984 240.53 58.928 240.53C63.4575 240.53 67.4092 239.329 70.2344 237.111C73.0654 234.887 74.75 231.653 74.75 227.632ZM68.062 227.632C68.062 231.934 64.2829 234.998 58.928 234.998C53.5731 234.998 49.794 231.934 49.794 227.632C49.794 225.433 50.7432 223.6 52.3523 222.311C53.9655 221.018 56.253 220.266 58.928 220.266C61.603 220.266 63.8905 221.018 65.5037 222.311C67.1128 223.6 68.062 225.433 68.062 227.632Z" fill="white" stroke="white" stroke-width="0.5"/>
</svg>
