<svg width="318" height="352" viewBox="0 0 318 352" fill="none" xmlns="http://www.w3.org/2000/svg">
<path d="M0 36.3C0 16.2521 16.2675 0 36.3345 0H280.767C300.834 0 317.101 16.2521 317.101 36.3V315.7C317.101 335.748 300.834 352 280.767 352H36.3345C16.2675 352 0 335.748 0 315.7V36.3Z" fill="#251300"/>
<path d="M9 37.6C9 21.8047 21.8168 9 37.6272 9H279.857C295.667 9 308.484 21.8047 308.484 37.6V190.5H9V37.6Z" fill="white"/>
<path d="M87.945 264.418H120.371V268.609C120.371 270.182 120.03 270.534 118.521 270.534H55.8497C54.3412 270.534 54 270.182 54 268.609V264.418H79.8746V248.083H86.2604C87.5156 248.083 87.945 248.347 87.945 249.744V264.418ZM105.584 232.001C107.94 232.001 108.865 232.87 108.865 235.851C108.865 246.598 107.94 251.669 106.343 257.257C105.837 259.006 105.672 259.27 103.657 258.918L98.7023 257.961C100.629 251.757 101.389 245.993 101.136 238.128H66.8601C65.0985 238.128 65.0984 238.04 65.0984 236.203V232.012H105.584V232.001ZM106.509 293.161C106.509 303.292 98.3611 309.408 87.2736 309.408C76.186 309.408 68.1152 303.292 68.1152 293.161C68.1152 283.03 76.175 276.914 87.2736 276.914C98.3721 276.914 106.509 282.942 106.509 293.161ZM98.8676 293.161C98.8676 287.309 93.9899 283.371 87.2736 283.371C80.5572 283.371 75.6795 287.298 75.6795 293.161C75.6795 299.024 80.5572 302.951 87.2736 302.951C93.9899 302.951 98.8676 298.936 98.8676 293.161Z" fill="white"/>
<path d="M167.408 267.74C167.154 269.225 165.227 270.974 162.783 272.195C157.905 266.607 151.608 260.755 145.816 256.641C142.535 262.933 137.58 268.697 130.699 273.68C129.014 274.901 128.519 275.165 127.594 274.032L124.07 269.929C137.008 259.886 143.228 248.963 143.228 232.881L149.273 232.969C150.782 232.969 151.123 233.145 151.123 234.278C151.123 239.778 150.286 245.025 148.69 250.008C154.823 253.935 161.792 259.71 165.822 263.901C167.165 265.298 167.672 266.607 167.418 267.74H167.408ZM181.435 279.103C183.197 279.103 184.044 279.719 184.044 281.545V307.054C182.283 307.758 179.255 308.451 177.746 307.582C176.733 307.054 175.985 306.097 175.985 304.524V285.307H141.203C139.694 285.307 139.276 284.955 139.276 283.382V279.103H181.446H181.435ZM184.044 274.648C182.195 275.264 179.167 275.957 177.658 275.176C176.645 274.648 175.974 273.691 175.974 272.118V230.538H182.36C183.615 230.538 184.044 230.89 184.044 232.287V274.659V274.648Z" fill="white"/>
<path d="M237.049 265.903C236.707 267.388 234.869 268.961 232.347 270.094C227.646 264.33 221.348 258.478 215.799 254.199C212.44 260.315 207.398 265.815 200.34 270.974C198.655 272.195 198.16 272.459 197.235 271.326L193.712 267.223C206.649 257.18 212.87 247.478 212.87 232.452L218.914 232.54C220.423 232.54 220.764 232.716 220.764 233.849C220.764 238.656 220.092 243.199 218.661 247.478C224.629 251.669 231.687 257.697 235.54 261.976C236.883 263.461 237.302 264.77 237.049 265.903ZM244.271 306.35C239.823 307.131 234.439 307.659 229.407 307.659C223.186 307.659 218.65 307.483 213.619 306.262C209.754 305.305 208.498 304.425 208.498 300.146V276.21H214.885C216.063 276.21 216.481 276.65 216.481 278.047V285.56H243.699V276.21H250.085C251.34 276.21 251.77 276.65 251.77 278.047V306.174C249.92 306.79 247.068 307.483 245.384 306.955C244.965 306.779 244.547 306.603 244.293 306.339L244.271 306.35ZM243.688 299.97V291.841H216.47V297.869C216.47 299.53 216.635 299.794 217.725 300.058C221.084 300.927 225.455 301.191 231.499 301.191C235.694 301.191 239.647 300.751 243.677 299.97H243.688ZM251.583 240.735H263.683V245.102C263.683 246.675 263.342 246.939 261.921 246.939H251.594V255.321H263.694V259.688C263.694 261.261 263.353 261.525 261.932 261.525H251.605V271.92C249.755 272.536 246.738 273.229 245.218 272.448C244.205 271.92 243.534 270.963 243.534 269.39V230.516H249.92C251.175 230.516 251.605 230.868 251.605 232.265V240.735H251.583Z" fill="white"/>
<path d="M85.1938 123.709C83.5816 127.924 82.0583 132.09 80.6921 136.148C79.3259 140.206 78.5814 142.344 78.5199 142.521H76.5321C76.4843 142.344 75.9719 140.807 74.9883 137.958C74.0046 135.11 72.7272 131.544 71.1288 127.302H71.0878C69.7216 130.806 68.41 134.188 67.2215 137.391C66.0329 140.595 65.4386 142.323 65.3498 142.521H63.3005C63.2458 142.241 62.6174 140.376 61.4766 136.906C60.3358 133.436 58.833 129.092 56.8725 123.88L59.2155 122.944C59.2155 123.08 59.8167 124.754 60.8891 128.006C61.9616 131.257 63.1843 134.891 64.5574 138.935L64.6393 138.833C66.1148 135.137 67.3717 131.756 68.4784 128.675C69.585 125.594 70.1246 123.989 70.1724 123.839H72.4062C72.4472 124.016 73.0073 125.744 74.1344 129.078C75.2615 132.412 76.3818 135.649 77.5499 138.833C79.08 134.666 80.3574 131.004 81.4026 127.903C82.4477 124.802 83.001 123.121 83.0352 122.951L85.1664 123.688L85.1938 123.709Z" fill="#6A8A22"/>
<path d="M105.284 142.433H102.968C102.968 141.866 102.968 140.807 102.968 139.249C102.968 137.692 102.968 135.834 102.968 133.525H91.3552C91.3552 136.175 91.3552 138.177 91.3552 139.529C91.3552 140.882 91.3552 141.866 91.3552 142.433H89.1147C89.1147 141.866 89.1147 140.834 89.1147 139.379C89.1147 137.924 89.1147 135.451 89.1147 131.988C89.1147 130.936 89.1147 129.659 89.1147 128.149C89.1147 126.639 89.1147 125.007 89.1147 123.272H91.4508C91.4508 124.727 91.4508 126.168 91.4508 127.561C91.4508 128.955 91.4508 130.294 91.4508 131.578H103.064C103.064 130.301 103.064 128.969 103.064 127.596C103.064 126.223 103.064 124.733 103.064 123.272H105.284C105.284 124.713 105.284 126.366 105.249 128.258C105.215 130.15 105.249 131.674 105.249 132.869C105.249 135.683 105.249 137.842 105.249 139.331C105.249 140.82 105.249 141.866 105.284 142.433Z" fill="#6A8A22"/>
<path d="M125.197 136.606C124.804 137.598 124.203 138.495 123.434 139.236C122.861 139.812 122.184 140.276 121.44 140.602C120.685 140.916 119.873 141.072 119.056 141.06C118.235 141.066 117.422 140.905 116.665 140.588C115.949 140.292 115.295 139.863 114.738 139.324C113.936 138.555 113.307 137.624 112.894 136.592C112.43 135.425 112.198 134.179 112.211 132.924C112.207 131.721 112.42 130.527 112.839 129.399C113.22 128.34 113.829 127.377 114.622 126.578C115.199 125.981 115.898 125.515 116.672 125.212C117.431 124.895 118.247 124.737 119.069 124.747C119.888 124.735 120.699 124.894 121.453 125.212C122.162 125.522 122.81 125.957 123.366 126.496C124.233 127.331 124.886 128.361 125.272 129.501C125.675 130.676 125.882 131.908 125.887 133.149C125.908 134.359 125.675 135.56 125.204 136.674L125.197 136.606ZM127.622 128.723C127.155 127.461 126.429 126.312 125.49 125.348C124.682 124.52 123.716 123.863 122.649 123.415C121.511 122.958 120.295 122.726 119.069 122.732C117.825 122.729 116.593 122.98 115.449 123.47C114.321 123.928 113.306 124.627 112.477 125.519C111.587 126.458 110.891 127.563 110.428 128.771C109.961 130.06 109.729 131.423 109.745 132.794C109.729 134.337 110.031 135.867 110.633 137.289C111.142 138.527 111.906 139.644 112.874 140.568C113.687 141.359 114.654 141.975 115.715 142.378C116.783 142.8 117.922 143.011 119.069 143C120.238 143.009 121.398 142.793 122.485 142.364C123.617 141.895 124.64 141.197 125.49 140.315C126.377 139.399 127.073 138.318 127.54 137.132C128.079 135.778 128.348 134.333 128.332 132.876C128.343 131.464 128.097 130.061 127.608 128.736L127.622 128.723Z" fill="#6A8A22"/>
<path d="M144.63 142.433C144.528 142.433 143.947 142.433 142.834 142.433H138.66H135.49C134.486 142.433 133.632 142.433 132.943 142.433C132.943 140.793 132.958 139.126 132.99 137.432V132.466C132.99 129.734 132.99 127.684 132.99 126.264C132.99 124.843 132.99 123.839 132.99 123.272H135.34C135.306 124.508 135.286 125.929 135.265 127.548C135.245 129.167 135.265 130.492 135.265 131.523C135.265 134.03 135.265 136.121 135.265 137.808C135.265 139.495 135.265 140.376 135.265 140.465H138.168C139.855 140.465 141.345 140.465 142.595 140.465H144.596V142.514L144.63 142.433Z" fill="#6A8A22"/>
<path d="M160.335 142.432C160.219 142.432 159.604 142.432 158.395 142.432H154.016H150.703C149.699 142.432 148.838 142.432 148.148 142.432C148.148 141.886 148.148 140.663 148.196 138.826C148.244 136.988 148.196 135.062 148.196 133.088C148.196 131.988 148.196 130.567 148.196 128.805C148.196 127.042 148.196 125.164 148.148 123.272H150.676C151.707 123.272 152.725 123.272 153.818 123.272C155.635 123.272 157.117 123.272 158.258 123.272H160.109V125.273H158.326C157.233 125.273 155.84 125.273 154.228 125.273H150.519C150.519 126.359 150.519 127.445 150.519 128.545C150.519 129.645 150.519 130.649 150.519 131.626H153.593C155.252 131.626 156.776 131.626 158.067 131.626C159.358 131.626 160.116 131.626 160.171 131.626V133.627H157.814C156.318 133.627 154.959 133.586 153.715 133.586H150.519C150.519 135.41 150.519 136.852 150.519 137.931C150.519 139.01 150.519 139.864 150.553 140.588C151.12 140.588 151.789 140.588 152.602 140.629H155.17C156.584 140.629 157.78 140.629 158.75 140.629C159.72 140.629 160.253 140.629 160.403 140.629V142.596L160.335 142.432Z" fill="#6A8A22"/>
<path d="M187.255 125.273H185.37C184.277 125.273 182.951 125.273 181.367 125.273H177.903C177.903 126.359 177.903 127.541 177.862 128.812C177.821 130.082 177.862 131.216 177.862 132.172H180.39C181.947 132.172 183.409 132.172 184.796 132.172C186.183 132.172 186.954 132.138 187.112 132.138V134.188H184.475C182.904 134.188 181.49 134.188 180.253 134.188H177.862C177.862 135.875 177.862 137.473 177.862 138.969C177.862 140.465 177.903 141.702 177.91 142.597H175.554C175.554 142.009 175.554 140.971 175.554 139.523C175.554 138.074 175.554 135.957 175.554 133.197C175.554 132.111 175.554 130.676 175.554 128.928C175.554 127.179 175.554 125.321 175.554 123.463H178.088C179.099 123.463 180.137 123.463 181.271 123.463C182.931 123.463 184.304 123.463 185.411 123.463H187.262V125.464L187.255 125.273Z" fill="#6A8A22"/>
<path d="M205.432 136.606C205.022 137.591 204.42 138.484 203.663 139.236C203.09 139.815 202.41 140.279 201.661 140.602C200.907 140.918 200.095 141.074 199.277 141.059C198.457 141.063 197.644 140.903 196.887 140.588C196.172 140.282 195.516 139.854 194.947 139.324C194.146 138.558 193.524 137.625 193.123 136.592C192.652 135.427 192.42 134.18 192.44 132.924C192.45 131.717 192.682 130.522 193.123 129.399C193.514 128.343 194.124 127.382 194.912 126.578C195.48 125.988 196.164 125.523 196.921 125.212C197.679 124.899 198.492 124.741 199.312 124.747C200.132 124.732 200.947 124.89 201.702 125.212C202.413 125.522 203.064 125.957 203.622 126.496C204.481 127.333 205.128 128.363 205.507 129.501C205.924 130.672 206.137 131.906 206.136 133.149C206.15 134.358 205.918 135.558 205.453 136.674L205.432 136.606ZM207.843 128.723C207.377 127.454 206.646 126.299 205.699 125.335C204.887 124.501 203.912 123.843 202.836 123.401C201.701 122.943 200.488 122.711 199.264 122.718C198.024 122.717 196.797 122.968 195.657 123.456C194.529 123.911 193.516 124.611 192.692 125.505C191.799 126.442 191.102 127.547 190.643 128.757C190.173 130.045 189.941 131.409 189.96 132.78C189.94 134.331 190.253 135.868 190.875 137.289C191.363 138.533 192.121 139.653 193.095 140.568C193.909 141.359 194.876 141.975 195.937 142.378C197.002 142.8 198.139 143.011 199.284 142.999C200.453 143.008 201.612 142.793 202.7 142.364C203.826 141.891 204.844 141.194 205.692 140.315C206.585 139.405 207.282 138.321 207.741 137.132C208.284 135.779 208.558 134.334 208.547 132.876C208.545 131.464 208.298 130.063 207.816 128.736L207.843 128.723Z" fill="#6A8A22"/>
<path d="M226.983 136.606C226.583 137.594 225.983 138.489 225.221 139.236C224.639 139.807 223.958 140.27 223.213 140.602C221.68 141.225 219.964 141.225 218.431 140.602C217.714 140.3 217.057 139.872 216.491 139.338C215.689 138.571 215.062 137.638 214.654 136.606C214.183 135.441 213.95 134.194 213.97 132.938C213.975 131.73 214.206 130.534 214.654 129.413C215.034 128.352 215.645 127.388 216.443 126.592C217.011 126 217.695 125.532 218.452 125.216C219.209 124.9 220.022 124.742 220.842 124.754C221.663 124.742 222.477 124.9 223.233 125.219C223.943 125.531 224.593 125.965 225.153 126.503C226.01 127.344 226.661 128.373 227.052 129.508C227.458 130.682 227.666 131.914 227.667 133.156C227.684 134.366 227.452 135.566 226.983 136.681V136.606ZM229.388 128.723C228.931 127.46 228.209 126.309 227.27 125.348C226.457 124.517 225.483 123.859 224.408 123.415C223.275 122.958 222.064 122.726 220.842 122.732C219.596 122.73 218.362 122.981 217.215 123.47C216.091 123.931 215.079 124.63 214.25 125.519C213.359 126.456 212.662 127.562 212.201 128.771C211.738 130.061 211.506 131.423 211.518 132.794C211.495 134.321 211.783 135.836 212.365 137.248C212.872 138.487 213.636 139.604 214.606 140.527C215.415 141.324 216.383 141.94 217.447 142.337C218.513 142.758 219.649 142.969 220.795 142.959C221.994 142.979 223.184 142.751 224.291 142.287C225.397 141.824 226.396 141.136 227.223 140.267C228.105 139.349 228.801 138.268 229.272 137.084C229.816 135.732 230.088 134.286 230.071 132.828C230.083 131.415 229.835 130.012 229.34 128.689L229.388 128.723Z" fill="#6A8A22"/>
<path d="M247.327 136.462C246.655 137.473 245.76 138.317 244.711 138.928C243.716 139.485 242.646 139.894 241.534 140.144C240.306 140.425 239.051 140.569 237.791 140.574H237.067C237.067 137.842 237.067 135.724 237.033 134.188C236.999 132.651 237.033 131.667 237.033 131.237V128.866C237.033 127.869 237.033 126.626 237.074 125.116H237.805C239.015 125.128 240.221 125.263 241.405 125.519C242.673 125.766 243.885 126.248 244.977 126.94C246.045 127.564 246.923 128.466 247.518 129.549C248.057 130.587 248.331 131.741 248.317 132.91C248.345 134.166 248 135.402 247.327 136.462ZM249.766 128.62C249.017 127.298 247.939 126.193 246.637 125.41C245.37 124.633 243.986 124.066 242.538 123.729C240.806 123.373 239.04 123.204 237.272 123.224H236.022H234.717C234.717 125.499 234.765 127.445 234.765 129.044V132.985C234.765 134.912 234.765 136.947 234.765 139.092C234.765 141.237 234.765 142.337 234.765 142.385H235.824C236.445 142.385 237.115 142.385 237.777 142.385C239.386 142.402 240.991 142.228 242.559 141.866C243.897 141.524 245.182 141 246.377 140.308C247.678 139.558 248.781 138.509 249.595 137.248C250.444 135.935 250.88 134.398 250.845 132.835C250.871 131.337 250.524 129.855 249.834 128.525L249.766 128.62Z" fill="#6A8A22"/>
<path d="M265.13 137.022C265.162 137.936 264.925 138.839 264.447 139.618C263.973 140.351 263.332 140.96 262.575 141.394C261.803 141.839 260.966 142.162 260.095 142.351C259.08 142.582 258.042 142.694 257.001 142.685C256.407 142.685 255.758 142.685 255.129 142.603C254.501 142.521 254.064 142.521 253.947 142.521L253.831 140.513C253.988 140.513 254.35 140.595 254.965 140.643C255.58 140.691 256.331 140.718 257.137 140.718C257.796 140.706 258.452 140.638 259.098 140.513C259.737 140.433 260.36 140.26 260.949 140.001C261.451 139.767 261.894 139.424 262.247 138.997C262.562 138.557 262.725 138.027 262.712 137.487C262.73 136.908 262.568 136.337 262.247 135.854C261.841 135.326 261.329 134.889 260.744 134.57C260.179 134.242 259.598 133.943 259.002 133.675C258.332 133.374 257.682 133.029 257.055 132.644C256.214 132.182 255.499 131.52 254.972 130.717C254.554 130.007 254.335 129.198 254.337 128.374C254.322 127.579 254.517 126.795 254.904 126.1C255.285 125.451 255.791 124.884 256.393 124.433C257.071 123.947 257.836 123.597 258.647 123.401C259.614 123.176 260.605 123.066 261.598 123.074C262.186 123.074 262.807 123.074 263.401 123.074L264.447 123.135L264.658 125.184C264.57 125.184 264.221 125.123 263.6 125.061C262.978 125 262.233 124.993 261.332 124.993C260.779 124.995 260.228 125.05 259.685 125.157C259.154 125.257 258.644 125.446 258.176 125.717C257.782 125.946 257.449 126.267 257.206 126.653C256.925 127.065 256.782 127.555 256.796 128.053C256.803 128.525 256.945 128.985 257.206 129.379C257.636 129.942 258.181 130.407 258.804 130.745C259.194 130.97 259.72 131.25 260.362 131.558C261.004 131.865 261.653 132.241 262.274 132.569C263.139 133.059 263.882 133.738 264.447 134.556C264.92 135.302 265.171 136.167 265.171 137.05L265.13 137.022Z" fill="#6A8A22"/>
<path d="M102.729 73.0776C101.413 69.4998 99.355 66.2408 96.6906 63.5142C94.3827 61.1661 91.6249 59.3075 88.5822 58.0495C85.36 56.687 81.8956 55.9899 78.3972 56.0002C74.8548 55.9878 71.3471 56.6991 68.0893 58.0904C64.8888 59.4596 62.0121 61.4868 59.6462 64.0402C57.1529 66.7164 55.2102 69.8567 53.9287 73.2825C52.6122 76.94 51.9599 80.8033 52.0023 84.6903C51.9502 89.0203 52.7727 93.3162 54.4205 97.3208C55.883 100.846 58.06 104.03 60.8143 106.672C63.1355 108.902 65.875 110.65 68.8749 111.816C71.9146 112.978 75.1432 113.566 78.3972 113.551C81.7157 113.575 85.0074 112.955 88.0904 111.727C91.3007 110.39 94.2074 108.417 96.636 105.928C99.2006 103.329 101.213 100.239 102.552 96.8426C104.091 92.9995 104.859 88.8913 104.813 84.7518C104.837 80.7599 104.143 76.7962 102.763 73.0503L102.729 73.0776ZM94.9624 95.0119C93.8739 97.6916 92.2463 100.119 90.1807 102.143C88.6244 103.673 86.7966 104.898 84.791 105.757C82.7526 106.594 80.5693 107.021 78.3658 107.014C76.1623 107.007 73.9818 106.566 71.9488 105.716C70.0212 104.898 68.2559 103.742 66.7368 102.301C64.5538 100.187 62.8589 97.623 61.7706 94.7865C60.5385 91.5749 59.9333 88.157 59.9877 84.7176C59.9807 81.4432 60.5638 78.1944 61.7092 75.1269C62.7638 72.2537 64.409 69.6335 66.5387 67.4352C68.0902 65.8706 69.9327 64.6244 71.9625 63.767C74.0004 62.9183 76.1897 62.493 78.3972 62.5169C80.591 62.4985 82.7658 62.9237 84.791 63.767C86.7144 64.5978 88.4694 65.7739 89.9689 67.2371C92.3108 69.5204 94.0722 72.3311 95.1058 75.4343C96.2288 78.6284 96.8106 81.9876 96.8272 85.3734C96.8732 88.6735 96.2384 91.9476 94.9624 94.9914V95.0119Z" fill="#251300"/>
<path d="M121.221 57.2912L116.672 57.4142V57.9675L116.897 77.5929V84.9704L116.815 102.102L116.692 111.953H124.411L124.309 99.5955L124.22 84.7449V76.5478C124.22 76.5478 124.37 64.778 124.384 63.7533H127.116L131.761 63.9241C133.371 64.0343 134.956 64.3772 136.468 64.9419C138.127 65.5203 139.576 66.5812 140.628 67.9885C141.658 69.4327 142.186 71.1748 142.131 72.9478C142.214 74.691 141.872 76.4284 141.133 78.0096C140.483 79.203 139.646 80.2847 138.654 81.2133C137.41 82.3168 136.033 83.26 134.555 84.0208C133.318 84.731 132.005 85.2993 130.641 85.7149L130.252 85.8106L130.156 86.8147L146.749 105.743L153.34 113.08L153.784 112.697L159.181 108.196L151.769 100.47C147.589 96.0912 143.709 91.7945 140.198 87.6686C142.523 86.1679 144.637 84.3621 146.482 82.2994C148.922 79.614 150.232 76.0901 150.137 72.4628C150.191 69.6107 149.345 66.814 147.719 64.4706C146.065 62.1897 143.808 60.4155 141.202 59.3473C139.114 58.4568 136.911 57.8658 134.658 57.5918C132.39 57.33 130.109 57.1978 127.827 57.1956L121.207 57.2912H121.221Z" fill="#251300"/>
<path d="M189.441 105.019C186.332 104.429 183.322 103.404 180.5 101.973C177.436 100.425 174.808 98.1353 172.856 95.3124C170.909 92.5049 169.912 88.905 169.912 84.5878C169.917 81.1692 170.903 77.824 172.753 74.9493C174.681 71.8899 177.393 69.4035 180.609 67.7494C183.352 66.3503 186.28 65.3475 189.305 64.7711C192.943 64.0627 196.644 63.7217 200.35 63.7533H204.06L203.472 56.9223H199.551C195.423 56.9015 191.303 57.3021 187.255 58.1178C183.575 58.8431 180.014 60.0777 176.674 61.786C172.34 63.9689 168.627 67.2115 165.881 71.2128C163.266 75.1494 161.906 79.7869 161.981 84.5127C161.913 88.1976 162.611 91.8564 164.03 95.2578C165.276 98.2286 167.123 100.91 169.454 103.134C173.069 106.577 177.485 109.066 182.303 110.375C184.988 111.121 187.73 111.648 190.5 111.953C190.5 111.953 198.636 112.848 206.088 110.969L206.041 106.037L206.006 97.0543L206.075 90.6879L206.205 83.3992H198.438L198.602 100.279C198.602 100.279 198.602 104.165 198.636 105.149C194.674 106.078 189.421 105.019 189.421 105.019H189.441Z" fill="#251300"/>
<path d="M258.074 91.6647L242.28 56.6833H236.351L220.571 91.1114L211.807 109.869L212.279 110.129L218.228 113.278L221.002 107.021C221.002 107.021 227.034 93.6047 227.314 92.9626H250.102C250.389 93.5979 256.25 106.775 256.25 106.775L258.982 113.23L259.535 112.991L266.284 109.576L258.074 91.6647ZM230.121 86.6986C230.729 85.3324 234.404 77.0601 234.404 77.0601C234.404 77.0601 238.045 68.9244 238.79 67.2918C239.521 68.938 243.237 77.3538 243.237 77.3538C243.237 77.3538 246.727 85.3392 247.335 86.6986H230.121Z" fill="#251300"/>
</svg>
