<svg width="318" height="352" viewBox="0 0 318 352" fill="none" xmlns="http://www.w3.org/2000/svg">
<path d="M0 36.3C0 16.2521 16.2675 0 36.3345 0H280.767C300.834 0 317.101 16.2521 317.101 36.3V315.7C317.101 335.748 300.834 352 280.767 352H36.3345C16.2675 352 0 335.748 0 315.7V36.3Z" fill="#8CC63F"/>
<path d="M9 37.4C9 21.6046 21.8168 8.79999 37.6272 8.79999H279.857C295.667 8.79999 308.484 21.6046 308.484 37.4V190.3H9V37.4Z" fill="white"/>
<path d="M86.945 264.418H119.371V268.609C119.371 270.182 119.03 270.534 117.521 270.534H54.8497C53.3412 270.534 53 270.182 53 268.609V264.418H78.8746V248.083H85.2604C86.5156 248.083 86.945 248.347 86.945 249.744V264.418ZM104.584 232.001C106.94 232.001 107.865 232.87 107.865 235.851C107.865 246.598 106.94 251.669 105.343 257.257C104.837 259.006 104.672 259.27 102.657 258.918L97.7023 257.961C99.6291 251.757 100.389 245.993 100.136 238.128H65.8601C64.0985 238.128 64.0984 238.04 64.0984 236.203V232.012H104.584V232.001ZM105.509 293.161C105.509 303.292 97.3611 309.408 86.2736 309.408C75.186 309.408 67.1152 303.292 67.1152 293.161C67.1152 283.03 75.175 276.914 86.2736 276.914C97.3721 276.914 105.509 282.942 105.509 293.161ZM97.8676 293.161C97.8676 287.309 92.9899 283.371 86.2736 283.371C79.5572 283.371 74.6795 287.298 74.6795 293.161C74.6795 299.024 79.5572 302.951 86.2736 302.951C92.9899 302.951 97.8676 298.936 97.8676 293.161Z" fill="white"/>
<path d="M166.408 267.74C166.154 269.225 164.227 270.974 161.783 272.195C156.905 266.607 150.608 260.755 144.816 256.641C141.535 262.933 136.58 268.697 129.699 273.68C128.014 274.901 127.519 275.165 126.594 274.032L123.07 269.929C136.008 259.886 142.228 248.963 142.228 232.881L148.273 232.969C149.782 232.969 150.123 233.145 150.123 234.278C150.123 239.778 149.286 245.025 147.69 250.008C153.823 253.935 160.792 259.71 164.822 263.901C166.165 265.298 166.672 266.607 166.418 267.74H166.408ZM180.435 279.103C182.197 279.103 183.044 279.719 183.044 281.545V307.054C181.283 307.758 178.255 308.451 176.746 307.582C175.733 307.054 174.985 306.097 174.985 304.524V285.307H140.203C138.694 285.307 138.276 284.955 138.276 283.382V279.103H180.446H180.435ZM183.044 274.648C181.195 275.264 178.167 275.957 176.658 275.176C175.645 274.648 174.974 273.691 174.974 272.118V230.538H181.36C182.615 230.538 183.044 230.89 183.044 232.287V274.659V274.648Z" fill="white"/>
<path d="M236.049 265.903C235.707 267.388 233.869 268.961 231.347 270.094C226.646 264.33 220.348 258.478 214.799 254.199C211.44 260.315 206.398 265.815 199.34 270.974C197.655 272.195 197.16 272.459 196.235 271.326L192.712 267.223C205.649 257.18 211.87 247.478 211.87 232.452L217.914 232.54C219.423 232.54 219.764 232.716 219.764 233.849C219.764 238.656 219.092 243.199 217.661 247.478C223.629 251.669 230.687 257.697 234.54 261.976C235.883 263.461 236.302 264.77 236.049 265.903ZM243.271 306.35C238.823 307.131 233.439 307.659 228.407 307.659C222.186 307.659 217.65 307.483 212.619 306.262C208.754 305.305 207.498 304.425 207.498 300.146V276.21H213.885C215.063 276.21 215.481 276.65 215.481 278.047V285.56H242.699V276.21H249.085C250.34 276.21 250.77 276.65 250.77 278.047V306.174C248.92 306.79 246.068 307.483 244.384 306.955C243.965 306.779 243.547 306.603 243.293 306.339L243.271 306.35ZM242.688 299.97V291.841H215.47V297.869C215.47 299.53 215.635 299.794 216.725 300.058C220.084 300.927 224.455 301.191 230.499 301.191C234.694 301.191 238.647 300.751 242.677 299.97H242.688ZM250.583 240.735H262.683V245.102C262.683 246.675 262.342 246.939 260.921 246.939H250.594V255.321H262.694V259.688C262.694 261.261 262.353 261.525 260.932 261.525H250.605V271.92C248.755 272.536 245.738 273.229 244.218 272.448C243.205 271.92 242.534 270.963 242.534 269.39V230.516H248.92C250.175 230.516 250.605 230.868 250.605 232.265V240.735H250.583Z" fill="white"/>
<path d="M201.392 113.713C199.516 113.665 197.648 113.972 195.889 114.619C189.775 117.033 186.752 124.443 186.99 130.177C186.951 131.483 187.193 132.782 187.699 133.989C188.206 135.196 188.965 136.283 189.928 137.179C190.89 138.076 192.034 138.761 193.284 139.189C194.534 139.618 195.862 139.781 197.18 139.667C198.977 139.725 200.766 139.412 202.433 138.748C204.101 138.084 205.609 137.083 206.862 135.811C210.027 132.388 211.688 127.866 211.481 123.236C211.533 121.94 211.307 120.648 210.816 119.445C210.326 118.241 209.583 117.154 208.636 116.255C207.69 115.355 206.561 114.663 205.324 114.225C204.087 113.788 202.77 113.613 201.46 113.713M193.002 130.68C192.628 126.254 194.904 118.106 200.815 117.603H201.155C202.422 117.722 203.593 118.325 204.418 119.283C205.242 120.241 205.656 121.479 205.571 122.733C205.944 127.025 203.6 135.375 197.792 135.878H197.452C193.817 135.878 193.104 132.256 193.002 130.714" fill="#231816"/>
<path d="M263.318 114.921C262.052 114.202 260.633 113.788 259.174 113.713C258.846 113.697 258.517 113.697 258.189 113.713C256.291 113.69 254.408 114.044 252.652 114.753C249.871 115.949 247.494 117.903 245.797 120.386C244.101 122.868 243.156 125.776 243.073 128.769C242.94 130.192 243.094 131.626 243.525 132.99C243.957 134.354 244.657 135.62 245.586 136.716C247.306 138.515 249.673 139.575 252.176 139.667H253.433C256.266 139.758 259.058 138.972 261.416 137.42C262.099 136.83 262.543 136.018 262.668 135.131C262.793 134.244 262.59 133.342 262.095 132.591C259.974 134.222 257.432 135.233 254.758 135.509C254.283 135.539 253.806 135.539 253.331 135.509C252.013 135.252 250.834 134.534 250.01 133.486C249.186 132.439 248.773 131.133 248.847 129.808H249.459C254.343 130.088 259.166 128.624 263.047 125.684C263.952 125.009 264.696 124.145 265.224 123.154C265.753 122.163 266.053 121.069 266.104 119.95C266.156 118.951 265.934 117.957 265.462 117.072C264.989 116.187 264.284 115.443 263.42 114.921M249.323 126.12C249.936 123.486 251.418 121.127 253.535 119.414C254.962 118.441 258.189 116.932 260.329 118.408C260.588 118.652 260.787 118.95 260.91 119.282C261.034 119.613 261.079 119.968 261.042 120.319C260.841 121.208 260.427 122.036 259.837 122.736C259.246 123.436 258.495 123.987 257.645 124.343C255.355 125.582 252.784 126.228 250.172 126.221H249.459" fill="#231816"/>
<path d="M61.847 99.1273H60.7939C57.9917 99.0888 55.1926 99.3247 52.4375 99.8314L45.6437 138.828H49.0406C49.4289 138.856 49.8188 138.807 50.188 138.685C50.5572 138.563 50.8984 138.371 51.1919 138.118C51.4855 137.866 51.7256 137.559 51.8986 137.215C52.0715 136.87 52.1739 136.496 52.1997 136.112L54.6115 122.7C56.0043 122.7 57.2951 122.7 58.7898 122.7C62.4231 122.948 66.0288 121.924 68.9734 119.808C71.918 117.693 74.0133 114.621 74.8912 111.131C76.4198 102.95 69.6939 99.2279 61.9489 99.1273M55.2909 118.106L57.9066 103.553C58.8664 103.349 59.8459 103.248 60.8279 103.252H61.779C65.5496 103.453 69.6259 105.163 68.5729 110.897C67.9691 113.38 66.3936 115.526 64.1909 116.865C61.4489 118.095 58.405 118.514 55.4268 118.072" fill="#231816"/>
<path d="M149.182 114.015C147.258 113.92 145.348 114.388 143.692 115.361C142.036 116.333 140.708 117.766 139.874 119.481C139.811 117.947 139.197 116.485 138.142 115.356C137.114 114.427 135.765 113.923 134.371 113.948C132.448 114.024 130.589 114.647 129.016 115.741C127.443 116.836 126.224 118.356 125.505 120.118C125.505 120.118 125.505 119.85 125.505 119.715C125.879 117.134 125.743 116.362 124.962 115.189C124.618 114.829 124.192 114.555 123.719 114.392C123.246 114.229 122.74 114.18 122.244 114.25C121.282 114.257 120.328 114.427 119.425 114.753C120.104 115.491 120.104 116.899 119.425 121.191C119.425 121.459 116.537 137.655 116.537 137.655C116.512 137.794 116.518 137.938 116.556 138.074C116.595 138.211 116.664 138.337 116.759 138.443C116.853 138.55 116.971 138.634 117.104 138.689C117.236 138.744 117.379 138.769 117.523 138.761H121.972L122.686 134.805C123.162 132.092 123.937 129.438 124.996 126.891C127.917 120.185 132.469 117.335 133.862 118.911C134.337 119.447 134.371 120.721 134.099 122.532L131.416 137.655C131.39 137.794 131.397 137.938 131.435 138.074C131.473 138.211 131.542 138.337 131.637 138.443C131.732 138.55 131.85 138.634 131.982 138.689C132.114 138.744 132.258 138.769 132.401 138.761H136.851L137.361 135.475C137.817 132.453 138.592 129.487 139.67 126.623C142.252 120.52 145.717 117.972 147.212 118.441C147.552 118.578 147.848 118.803 148.069 119.092C148.29 119.381 148.428 119.724 148.468 120.084C148.67 121.126 148.67 122.195 148.468 123.236C148.231 125.013 147.11 129.943 146.566 133.664C146.226 136.213 146.362 137.018 147.144 138.191C147.489 138.548 147.916 138.816 148.39 138.974C148.863 139.131 149.368 139.174 149.861 139.097C150.825 139.104 151.781 138.934 152.681 138.594C152.001 137.856 151.933 136.28 152.681 132.122C153.088 129.607 153.7 126.891 153.7 126.891C154.622 123.781 154.704 120.486 153.937 117.335C153.528 116.402 152.869 115.598 152.031 115.007C151.193 114.416 150.208 114.062 149.182 113.982" fill="#231816"/>
<path d="M233.493 114.015C231.405 113.927 229.34 114.475 227.578 115.585C225.816 116.694 224.442 118.312 223.642 120.218C223.623 120.063 223.623 119.905 223.642 119.749C223.982 117.167 223.642 116.027 223.065 115.222C221.672 113.68 218.683 114.384 217.528 114.786C218.207 115.524 218.207 116.932 217.528 121.224L217.222 123.002L214.64 137.688C214.615 137.828 214.621 137.971 214.659 138.108C214.698 138.244 214.767 138.37 214.862 138.477C214.956 138.583 215.074 138.667 215.207 138.722C215.339 138.777 215.482 138.802 215.626 138.795H220.076C220.076 138.795 220.653 135.442 220.789 134.838C221.32 132.101 222.139 129.426 223.235 126.858C226.122 120.151 230.368 117.905 231.693 118.475C231.991 118.638 232.245 118.87 232.434 119.15C232.623 119.429 232.742 119.75 232.78 120.084C232.967 121.127 232.967 122.194 232.78 123.236C232.508 125.013 231.387 129.943 230.878 133.664C230.504 136.213 230.64 137.018 231.421 138.191C231.77 138.543 232.198 138.808 232.67 138.966C233.142 139.123 233.646 139.168 234.139 139.097C235.102 139.107 236.059 138.936 236.958 138.594C236.279 137.856 236.211 136.28 236.958 132.122C237.366 129.607 237.977 126.891 237.977 126.891C238.9 123.781 238.982 120.486 238.215 117.335C237.796 116.409 237.135 115.61 236.299 115.02C235.463 114.431 234.483 114.072 233.459 113.982" fill="#231816"/>
<path d="M96.5975 114.954C94.933 114.954 92.8609 115.256 92.8609 115.256L92.3513 118.139C92.3513 119.045 92.0116 120.017 91.8078 120.99C91.2728 122.878 90.603 124.727 89.8036 126.522C86.8823 133.229 83.0098 135.24 81.5152 134.939C81.0396 134.939 80.4961 134.436 80.2583 133.329C80.0569 132.277 80.0569 131.196 80.2583 130.144C80.4961 128.367 81.6171 123.437 82.1606 119.715C82.5003 117.167 82.3644 116.195 81.5831 115.189C81.2346 114.837 80.8067 114.571 80.3344 114.414C79.8621 114.257 79.3588 114.212 78.8656 114.283C77.9022 114.276 76.9458 114.446 76.0461 114.786C76.7255 115.524 76.7934 117.066 76.0461 121.224C75.6385 123.773 75.4347 124.343 75.027 126.489C74.4887 128.956 74.2492 131.477 74.3137 134C74.3695 135.382 74.9418 136.695 75.9203 137.686C76.8988 138.677 78.2142 139.275 79.6129 139.365C81.6895 139.461 83.7461 138.928 85.507 137.837C87.2678 136.746 88.6485 135.15 89.4639 133.262C89.4639 133.262 89.4639 133.53 89.4639 133.631C89.0903 136.213 89.2262 137.152 90.0074 138.158C90.3509 138.516 90.7782 138.787 91.252 138.944C91.7258 139.102 92.2316 139.143 92.725 139.063C93.6867 139.087 94.644 138.928 95.5444 138.594C94.865 137.856 94.865 136.448 95.5444 132.156C95.5444 131.552 95.5444 130.948 95.8162 130.378L97.4467 121.023L98.194 116.865C98.3639 115.826 98.194 114.887 96.4956 114.954" fill="#231816"/>
<path d="M181.996 114.954C180.332 114.954 178.259 115.256 178.259 115.256L177.75 118.139C177.75 119.045 177.376 120.017 177.172 120.99C176.702 122.885 176.065 124.736 175.27 126.522C172.383 133.229 168.476 135.24 166.982 134.939C166.506 134.939 165.997 134.436 165.725 133.329C165.558 132.274 165.558 131.199 165.725 130.144C165.963 128.367 167.118 123.437 167.627 119.715C168.001 117.167 167.865 116.195 167.084 115.189C166.735 114.837 166.307 114.571 165.835 114.414C165.363 114.257 164.859 114.212 164.366 114.283C163.402 114.271 162.445 114.442 161.547 114.786C162.192 115.524 162.294 117.066 161.547 121.224C161.139 123.773 160.935 124.343 160.528 126.489C159.972 128.953 159.733 131.477 159.814 134C159.861 135.374 160.421 136.682 161.387 137.673C162.353 138.664 163.656 139.266 165.045 139.365C167.117 139.433 169.161 138.888 170.917 137.801C172.672 136.713 174.058 135.133 174.896 133.262V133.631C174.557 136.213 174.693 137.152 175.474 138.158C175.814 138.521 176.241 138.795 176.716 138.953C177.19 139.111 177.698 139.149 178.191 139.063C179.153 139.085 180.11 138.925 181.011 138.594C180.332 137.856 180.332 136.448 181.011 132.156L181.317 130.378L182.947 121.023L183.661 116.865C183.864 115.826 183.661 114.887 181.996 114.954Z" fill="#231816"/>
<path d="M114.092 98.792H113.582L109.098 99.7308L102.95 134.1C102.632 135.209 102.704 136.391 103.154 137.454C103.494 138.07 104.068 138.529 104.75 138.728C105.412 138.916 106.1 138.995 106.788 138.962C107.507 138.982 108.226 138.915 108.928 138.761C108.57 137.16 108.57 135.501 108.928 133.899L114.907 100.368C115.077 99.3955 115.179 98.4902 114.194 98.4902" fill="#231816"/>
<path d="M158.693 87.7602C108.351 87.7602 63.3758 75.5883 33.0074 56.9449L32.328 56.4755C32.1847 56.37 32.0805 56.221 32.0314 56.0514C31.9823 55.8818 31.991 55.7009 32.0562 55.5366C32.1251 55.3508 32.2584 55.1949 32.4324 55.0967C32.6065 54.9986 32.8102 54.9643 33.0074 55.0001L33.8226 55.2348C67.5201 66.5349 111.171 72.9058 158.693 72.9058C206.216 72.9058 249.833 66.5349 283.428 55.2348L284.346 55.0001C284.531 54.9862 284.717 55.0306 284.875 55.1269C285.034 55.2233 285.158 55.3667 285.229 55.5366C285.304 55.6964 285.321 55.8767 285.278 56.0475C285.234 56.2183 285.133 56.3693 284.991 56.4755C284.79 56.6505 284.574 56.8076 284.346 56.9449C253.977 75.6219 209.002 87.7602 158.659 87.7602" fill="#80C342"/>
<path d="M201.392 113.713C199.516 113.665 197.648 113.972 195.889 114.619C189.775 117.033 186.752 124.443 186.99 130.177C186.951 131.483 187.193 132.782 187.699 133.989C188.206 135.196 188.965 136.283 189.928 137.179C190.89 138.076 192.034 138.761 193.284 139.189C194.534 139.618 195.862 139.781 197.18 139.667C198.977 139.725 200.766 139.412 202.433 138.748C204.101 138.084 205.609 137.083 206.862 135.811C210.027 132.388 211.688 127.866 211.481 123.236C211.533 121.94 211.307 120.648 210.816 119.445C210.326 118.241 209.583 117.154 208.636 116.255C207.69 115.355 206.561 114.663 205.324 114.225C204.087 113.788 202.77 113.613 201.46 113.713M193.002 130.68C192.628 126.254 194.904 118.106 200.815 117.603H201.155C202.422 117.722 203.593 118.325 204.418 119.283C205.242 120.241 205.656 121.479 205.571 122.733C205.944 127.025 203.6 135.375 197.792 135.878H197.452C193.817 135.878 193.104 132.256 193.002 130.714" fill="#231816"/>
<path d="M263.318 114.921C262.052 114.202 260.633 113.788 259.174 113.713C258.846 113.697 258.517 113.697 258.189 113.713C256.291 113.69 254.408 114.044 252.652 114.753C249.871 115.949 247.494 117.903 245.797 120.386C244.101 122.868 243.156 125.776 243.073 128.769C242.94 130.192 243.094 131.626 243.525 132.99C243.957 134.354 244.657 135.62 245.586 136.716C247.306 138.515 249.673 139.575 252.176 139.667H253.433C256.266 139.758 259.058 138.972 261.416 137.42C262.099 136.83 262.543 136.018 262.668 135.131C262.793 134.244 262.59 133.342 262.095 132.591C259.974 134.222 257.432 135.233 254.758 135.509C254.283 135.539 253.806 135.539 253.331 135.509C252.013 135.252 250.834 134.534 250.01 133.486C249.186 132.439 248.773 131.133 248.847 129.808H249.459C254.343 130.088 259.166 128.624 263.047 125.684C263.952 125.009 264.696 124.145 265.224 123.154C265.753 122.163 266.053 121.069 266.104 119.95C266.156 118.951 265.934 117.957 265.462 117.072C264.989 116.187 264.284 115.443 263.42 114.921M249.323 126.12C249.936 123.486 251.418 121.127 253.535 119.414C254.962 118.441 258.189 116.932 260.329 118.408C260.588 118.652 260.787 118.95 260.91 119.282C261.034 119.613 261.079 119.968 261.042 120.319C260.841 121.208 260.427 122.036 259.837 122.736C259.246 123.436 258.495 123.987 257.645 124.343C255.355 125.582 252.784 126.228 250.172 126.221H249.459" fill="#231816"/>
<path d="M61.847 99.1273H60.7939C57.9917 99.0888 55.1926 99.3247 52.4375 99.8314L45.6437 138.828H49.0406C49.4289 138.856 49.8188 138.807 50.188 138.685C50.5572 138.563 50.8984 138.371 51.1919 138.118C51.4855 137.866 51.7256 137.559 51.8986 137.215C52.0715 136.87 52.1739 136.496 52.1997 136.112L54.6115 122.7C56.0043 122.7 57.2951 122.7 58.7898 122.7C62.4231 122.948 66.0288 121.924 68.9734 119.808C71.918 117.693 74.0133 114.621 74.8912 111.131C76.4198 102.95 69.6939 99.2279 61.9489 99.1273M55.2909 118.106L57.9066 103.553C58.8664 103.349 59.8459 103.248 60.8279 103.252H61.779C65.5496 103.453 69.6259 105.163 68.5729 110.897C67.9691 113.38 66.3936 115.526 64.1909 116.865C61.4489 118.095 58.405 118.514 55.4268 118.072" fill="#231816"/>
<path d="M149.182 114.015C147.258 113.92 145.348 114.388 143.692 115.361C142.036 116.333 140.708 117.766 139.874 119.481C139.811 117.947 139.197 116.485 138.142 115.356C137.114 114.427 135.765 113.923 134.371 113.948C132.448 114.024 130.589 114.647 129.016 115.741C127.443 116.836 126.224 118.356 125.505 120.118C125.505 120.118 125.505 119.85 125.505 119.715C125.879 117.134 125.743 116.362 124.962 115.189C124.618 114.829 124.192 114.555 123.719 114.392C123.246 114.229 122.74 114.18 122.244 114.25C121.282 114.257 120.328 114.427 119.425 114.753C120.104 115.491 120.104 116.899 119.425 121.191C119.425 121.459 116.537 137.655 116.537 137.655C116.512 137.794 116.518 137.938 116.556 138.074C116.595 138.211 116.664 138.337 116.759 138.443C116.853 138.55 116.971 138.634 117.104 138.689C117.236 138.744 117.379 138.769 117.523 138.761H121.972L122.686 134.805C123.162 132.092 123.937 129.438 124.996 126.891C127.917 120.185 132.469 117.335 133.862 118.911C134.337 119.447 134.371 120.721 134.099 122.532L131.416 137.655C131.39 137.794 131.397 137.938 131.435 138.074C131.473 138.211 131.542 138.337 131.637 138.443C131.732 138.55 131.85 138.634 131.982 138.689C132.114 138.744 132.258 138.769 132.401 138.761H136.851L137.361 135.475C137.817 132.453 138.592 129.487 139.67 126.623C142.252 120.52 145.717 117.972 147.212 118.441C147.552 118.578 147.848 118.803 148.069 119.092C148.29 119.381 148.428 119.724 148.468 120.084C148.67 121.126 148.67 122.195 148.468 123.236C148.231 125.013 147.11 129.943 146.566 133.664C146.226 136.213 146.362 137.018 147.144 138.191C147.489 138.548 147.916 138.816 148.39 138.974C148.863 139.131 149.368 139.174 149.861 139.097C150.825 139.104 151.781 138.934 152.681 138.594C152.001 137.856 151.933 136.28 152.681 132.122C153.088 129.607 153.7 126.891 153.7 126.891C154.622 123.781 154.704 120.486 153.937 117.335C153.528 116.402 152.869 115.598 152.031 115.007C151.193 114.416 150.208 114.062 149.182 113.982" fill="#231816"/>
<path d="M233.493 114.015C231.405 113.927 229.34 114.475 227.578 115.585C225.816 116.694 224.442 118.312 223.642 120.218C223.623 120.063 223.623 119.905 223.642 119.749C223.982 117.167 223.642 116.027 223.065 115.222C221.672 113.68 218.683 114.384 217.528 114.786C218.207 115.524 218.207 116.932 217.528 121.224L217.222 123.002L214.64 137.688C214.615 137.828 214.621 137.971 214.659 138.108C214.698 138.244 214.767 138.37 214.862 138.477C214.956 138.583 215.074 138.667 215.207 138.722C215.339 138.777 215.482 138.802 215.626 138.795H220.076C220.076 138.795 220.653 135.442 220.789 134.838C221.32 132.101 222.139 129.426 223.235 126.858C226.122 120.151 230.368 117.905 231.693 118.475C231.991 118.638 232.245 118.87 232.434 119.15C232.623 119.429 232.742 119.75 232.78 120.084C232.967 121.127 232.967 122.194 232.78 123.236C232.508 125.013 231.387 129.943 230.878 133.664C230.504 136.213 230.64 137.018 231.421 138.191C231.77 138.543 232.198 138.808 232.67 138.966C233.142 139.123 233.646 139.168 234.139 139.097C235.102 139.107 236.059 138.936 236.958 138.594C236.279 137.856 236.211 136.28 236.958 132.122C237.366 129.607 237.977 126.891 237.977 126.891C238.9 123.781 238.982 120.486 238.215 117.335C237.796 116.409 237.135 115.61 236.299 115.02C235.463 114.431 234.483 114.072 233.459 113.982" fill="#231816"/>
<path d="M96.5975 114.954C94.933 114.954 92.8609 115.256 92.8609 115.256L92.3513 118.139C92.3513 119.045 92.0116 120.017 91.8078 120.99C91.2728 122.878 90.603 124.727 89.8036 126.522C86.8823 133.229 83.0098 135.24 81.5152 134.939C81.0396 134.939 80.4961 134.436 80.2583 133.329C80.0569 132.277 80.0569 131.196 80.2583 130.144C80.4961 128.367 81.6171 123.437 82.1606 119.715C82.5003 117.167 82.3644 116.195 81.5831 115.189C81.2346 114.837 80.8067 114.571 80.3344 114.414C79.8621 114.257 79.3588 114.212 78.8656 114.283C77.9022 114.276 76.9458 114.446 76.0461 114.786C76.7255 115.524 76.7934 117.066 76.0461 121.224C75.6385 123.773 75.4347 124.343 75.027 126.489C74.4887 128.956 74.2492 131.477 74.3137 134C74.3695 135.382 74.9418 136.695 75.9203 137.686C76.8988 138.677 78.2142 139.275 79.6129 139.365C81.6895 139.461 83.7461 138.928 85.507 137.837C87.2678 136.746 88.6485 135.15 89.4639 133.262C89.4639 133.262 89.4639 133.53 89.4639 133.631C89.0903 136.213 89.2262 137.152 90.0074 138.158C90.3509 138.516 90.7782 138.787 91.252 138.944C91.7258 139.102 92.2316 139.143 92.725 139.063C93.6867 139.087 94.644 138.928 95.5444 138.594C94.865 137.856 94.865 136.448 95.5444 132.156C95.5444 131.552 95.5444 130.948 95.8162 130.378L97.4467 121.023L98.194 116.865C98.3639 115.826 98.194 114.887 96.4956 114.954" fill="#231816"/>
<path d="M181.996 114.954C180.332 114.954 178.259 115.256 178.259 115.256L177.75 118.139C177.75 119.045 177.376 120.017 177.172 120.99C176.702 122.885 176.065 124.736 175.27 126.522C172.383 133.229 168.476 135.24 166.982 134.939C166.506 134.939 165.997 134.436 165.725 133.329C165.558 132.274 165.558 131.199 165.725 130.144C165.963 128.367 167.118 123.437 167.627 119.715C168.001 117.167 167.865 116.195 167.084 115.189C166.735 114.837 166.307 114.571 165.835 114.414C165.363 114.257 164.859 114.212 164.366 114.283C163.402 114.271 162.445 114.442 161.547 114.786C162.192 115.524 162.294 117.066 161.547 121.224C161.139 123.773 160.935 124.343 160.528 126.489C159.972 128.953 159.733 131.477 159.814 134C159.861 135.374 160.421 136.682 161.387 137.673C162.353 138.664 163.656 139.266 165.045 139.365C167.117 139.433 169.161 138.888 170.917 137.801C172.672 136.713 174.058 135.133 174.896 133.262V133.631C174.557 136.213 174.693 137.152 175.474 138.158C175.814 138.521 176.241 138.795 176.716 138.953C177.19 139.111 177.698 139.149 178.191 139.063C179.153 139.085 180.11 138.925 181.011 138.594C180.332 137.856 180.332 136.448 181.011 132.156L181.317 130.378L182.947 121.023L183.661 116.865C183.864 115.826 183.661 114.887 181.996 114.954Z" fill="#231816"/>
<path d="M114.092 98.792H113.582L109.098 99.7308L102.95 134.1C102.632 135.209 102.704 136.391 103.154 137.454C103.494 138.07 104.068 138.529 104.75 138.728C105.412 138.916 106.1 138.995 106.788 138.962C107.507 138.982 108.226 138.915 108.928 138.761C108.57 137.16 108.57 135.501 108.928 133.899L114.907 100.368C115.077 99.3955 115.179 98.4902 114.194 98.4902" fill="#231816"/>
<path d="M158.693 87.7602C108.351 87.7602 63.3758 75.5883 33.0074 56.9449L32.328 56.4755C32.1847 56.37 32.0805 56.221 32.0314 56.0514C31.9823 55.8818 31.991 55.7009 32.0562 55.5366C32.1251 55.3508 32.2584 55.1949 32.4324 55.0967C32.6065 54.9986 32.8102 54.9643 33.0074 55.0001L33.8226 55.2348C67.5201 66.5349 111.171 72.9058 158.693 72.9058C206.216 72.9058 249.833 66.5349 283.428 55.2348L284.346 55.0001C284.531 54.9862 284.717 55.0306 284.875 55.1269C285.034 55.2233 285.158 55.3667 285.229 55.5366C285.304 55.6964 285.321 55.8767 285.278 56.0475C285.234 56.2183 285.133 56.3693 284.991 56.4755C284.79 56.6505 284.574 56.8076 284.346 56.9449C253.977 75.6219 209.002 87.7602 158.659 87.7602" fill="#80C342"/>
</svg>
