<svg data-name="Icon/20/Schedule_Line_20" xmlns="http://www.w3.org/2000/svg" width="20" height="20">
    <g data-name="Icon/20/Schedule_Line_20">
        <path style="fill:none" d="M0 0h20v20H0z"/>
        <g data-name="Group 2">
            <path data-name="Combined Shape" d="M1.75 14A1.752 1.752 0 0 1 0 12.25V3a1.751 1.751 0 0 1 1.75-1.75h2.083V.5a.5.5 0 0 1 .992-.09l.008.09v.75H8.75V.5a.5.5 0 0 1 .992-.09L9.75.5v.75h2A1.751 1.751 0 0 1 13.5 3v9.25A1.752 1.752 0 0 1 11.75 14zM1 12.25a.751.751 0 0 0 .75.75h10a.751.751 0 0 0 .75-.751v-6.54H1zm11.5-7.542V3a.751.751 0 0 0-.75-.75h-2v.885a.5.5 0 0 1-.992.09l-.008-.09V2.25H4.833v.885a.5.5 0 0 1-.992.09l-.008-.09V2.25H1.75A.751.751 0 0 0 1 3v1.708z" style="fill:#333" transform="translate(3.25 2.625)"/>
        </g>
    </g>
</svg>
