<svg xmlns="http://www.w3.org/2000/svg" width="24" height="24" viewBox="0 0 24 24">
    <g fill="none" fill-rule="evenodd">
        <path d="M0 0H24V24H0z"/>
        <path fill="#FF732A" d="M12 4.15c4.627 0 8.379 3.752 8.379 8.38 0 1.87-.616 3.647-1.728 5.096l-.177.218 1.143 1.977c.159.276.115.613-.085.838l-.082.08-.097.066c-.269.155-.6.118-.833-.083l-.082-.083-.068-.098-.942-1.631-.16.136c-1.293 1.046-2.866 1.687-4.543 1.831l-.361.023-.364.008c-1.947 0-3.791-.667-5.269-1.863l-.161-.137-.943 1.633c-.159.276-.473.407-.768.346l-.11-.032-.105-.05c-.31-.179-.437-.554-.314-.878l.05-.106 1.142-1.98-.175-.218c-.963-1.255-1.553-2.756-1.693-4.351l-.025-.37-.008-.373c0-4.627 3.752-8.378 8.379-8.378zm0 1.44c-3.832 0-6.939 3.107-6.939 6.94 0 3.832 3.107 6.938 6.939 6.938s6.939-3.106 6.939-6.939c0-3.832-3.107-6.938-6.939-6.938zm0 2.924c.31 0 .58.198.68.488l.03.113.01.119-.001 3.091h3.093c.272 0 .512.152.635.385l.045.104.03.113.01.119c0 .31-.198.58-.489.68l-.113.03-.118.01H12c-.31 0-.58-.198-.68-.489l-.03-.113-.01-.118V9.234c0-.398.322-.72.72-.72zm5.776-4.855c.216-.216.54-.268.808-.146l.12.07.09.076 2.746 2.746c.28.28.28.737 0 1.018-.22.22-.55.27-.827.136l-.1-.06-.091-.076-2.746-2.745c-.28-.282-.28-.737 0-1.019zm-12.571 0c.28-.28.737-.28 1.018 0 .25.25.278.638.083.919l-.083.1-2.745 2.745c-.282.281-.737.281-1.019 0-.25-.25-.277-.638-.083-.919l.083-.1L5.205 3.66z"/>
    </g>
</svg>
