<svg xmlns="http://www.w3.org/2000/svg" width="20" height="20" viewBox="0 0 20 20">
    <g fill="none" fill-rule="evenodd">
        <path d="M0 0H20V20H0z"/>
        <path fill="#C2C2C2" d="M10 3.459c3.856 0 6.982 3.126 6.982 6.982 0 1.56-.513 3.04-1.44 4.247l-.147.182.952 1.648c.133.23.097.51-.07.698l-.069.066-.08.056c-.224.129-.501.098-.695-.07l-.068-.069-.057-.081-.785-1.36-.133.114c-1.078.872-2.388 1.406-3.786 1.526l-.3.019-.304.007c-1.623 0-3.16-.556-4.39-1.553l-.135-.114-.786 1.36c-.132.23-.394.34-.64.289l-.091-.027-.088-.041c-.259-.15-.364-.462-.262-.732l.042-.088.952-1.65-.146-.182c-.803-1.046-1.294-2.297-1.411-3.626l-.02-.308-.007-.31c0-3.857 3.126-6.983 6.982-6.983zm0 1.2c-3.194 0-5.782 2.589-5.782 5.782 0 3.194 2.588 5.783 5.782 5.783s5.782-2.59 5.782-5.783c0-3.193-2.588-5.782-5.782-5.782zm0 2.436c.259 0 .483.165.567.407l.025.094.008.099-.001 2.576h2.577c.227 0 .427.127.53.32l.037.087.025.095.008.098c0 .26-.165.484-.407.567l-.094.025-.099.008H10c-.259 0-.483-.165-.567-.407l-.025-.094-.008-.099V7.695c0-.332.269-.6.6-.6zm4.814-4.045c.18-.18.45-.224.673-.122l.1.058.075.064 2.288 2.287c.234.235.234.614 0 .849-.183.183-.459.225-.689.113l-.084-.05-.076-.063-2.287-2.288c-.235-.234-.235-.614 0-.848zm-10.477 0c.235-.235.614-.235.849 0 .208.208.231.531.07.765l-.07.083-2.288 2.288c-.234.234-.614.234-.848 0-.209-.209-.232-.532-.07-.766l.07-.083L4.337 3.05z"/>
    </g>
</svg>
