<svg xmlns="http://www.w3.org/2000/svg" width="16" height="16" viewBox="0 0 16 16">
    <g fill="none" fill-rule="evenodd">
        <path d="M0 0H16V16H0z"/>
        <path fill="#C2C2C2" d="M8 0c4.418 0 8 3.582 8 8s-3.582 8-8 8-8-3.582-8-8 3.582-8 8-8zm0 1C4.134 1 1 4.134 1 8s3.134 7 7 7 7-3.134 7-7-3.134-7-7-7zm.1 9.222c.331 0 .6.269.6.6 0 .332-.269.6-.6.6-.331 0-.6-.268-.6-.6 0-.331.269-.6.6-.6zm0-5.722c.276 0 .5.224.5.5v3.5c0 .276-.224.5-.5.5s-.5-.224-.5-.5V5c0-.276.224-.5.5-.5z"/>
    </g>
</svg>
