<svg width="234" height="267" viewBox="0 0 234 267" fill="none" xmlns="http://www.w3.org/2000/svg">
<path d="M0 27.5344C0 12.3276 12.0044 0 26.8125 0H207.187C221.996 0 234 12.3276 234 27.5344V239.466C234 254.672 221.996 267 207.187 267H26.8125C12.0044 267 0 254.672 0 239.466V27.5344Z" fill="#8CC63F"/>
<path d="M6 28.6909C6 16.1591 15.5008 6 27.2206 6H206.779C218.499 6 228 16.1591 228 28.6909V150H6V28.6909Z" fill="white"/>
<path d="M145.244 72.6764C143.756 72.6764 142.595 72.8736 141.528 73.2792C137.421 74.8622 135.378 79.7295 135.542 83.5011C135.708 87.3487 138.26 89.6781 142.37 89.7401C144.91 89.7795 147.217 88.8585 148.883 87.191C150.935 85.1404 152.128 81.98 151.996 78.938C151.824 75.0171 149.275 72.6764 145.244 72.6764ZM139.54 83.8165C139.289 80.9181 140.835 75.5664 144.808 75.2255C144.893 75.2171 144.969 75.2143 145.045 75.2143C147.372 75.2875 147.907 77.3409 148.012 78.5746C148.257 81.4082 146.673 86.8727 142.768 87.2079C142.698 87.2191 142.627 87.2191 142.554 87.222C140.102 87.1403 139.628 84.8277 139.54 83.8165Z" fill="black"/>
<path d="M186.928 73.4736C186.18 73.0313 185.183 72.7497 184.128 72.6792C183.908 72.668 183.686 72.6652 183.47 72.668C182.266 72.6483 181.006 72.8792 179.746 73.3665C176.051 74.7974 173.52 78.3916 173.289 82.5209C173.172 84.6024 173.762 86.4136 174.993 87.7543C176.109 88.974 177.732 89.5514 179.424 89.6753C179.424 89.6753 179.749 89.7091 180.263 89.7007C181.362 89.7148 183.859 89.5796 185.636 88.2247C186.554 87.5234 186.826 85.9376 186.095 85.0475L186.086 85.0531C186.083 85.0531 186.083 85.0475 186.083 85.0475C186.083 85.0475 183.765 86.8586 181.146 86.9685C180.833 86.9628 180.515 86.9431 180.184 86.884C177.39 86.4023 177.162 83.8306 177.159 83.1293C177.337 83.1321 177.515 83.1349 177.691 83.1321C181.444 83.1405 184.794 82.1744 186.671 80.552C187.875 79.5126 188.591 78.5606 188.714 76.7635C188.872 74.5101 186.937 73.4792 186.928 73.4736ZM177.425 80.8365C178.01 78.3747 179.641 76.7973 180.272 76.3748C181.234 75.7269 183.397 74.7467 184.727 75.7157C185.051 75.9551 185.253 76.4734 185.212 76.9607C185.133 77.9071 184.306 78.876 182.941 79.614C181.041 80.6449 179.071 80.8421 177.907 80.8506C177.714 80.8477 177.551 80.8393 177.425 80.8365Z" fill="black"/>
<path d="M51.3161 63.0967C51.0705 63.0939 50.8337 63.0939 50.597 63.0967C47.1067 63.0967 44.9669 63.5474 44.9669 63.5474L40.2811 89.188C40.2811 89.188 42.529 89.188 42.6167 89.188C43.7363 89.188 44.508 88.6782 44.7418 87.3938C44.9201 86.4079 46.2765 78.9746 46.3613 78.4957C47.3084 78.5493 48.1795 78.5802 49.1851 78.5746C55.4991 78.5605 59.2876 74.7495 60.0213 70.9723C61.0619 65.6008 56.5164 63.1502 51.3161 63.0967ZM46.8962 75.572C46.905 75.572 48.6472 65.9895 48.6472 65.9895C48.6472 65.9895 49.3429 65.812 50.6233 65.798C50.8279 65.8008 51.0442 65.8064 51.2751 65.8177C53.8154 65.9501 56.5573 67.0739 55.7359 70.8512C55.391 72.4313 54.1983 73.9834 52.7952 74.7636C50.7519 75.9072 47.6562 75.6678 46.8962 75.572Z" fill="black"/>
<path d="M110.087 72.8707C106.856 72.6257 105.012 74.6199 103.825 76.4508C103.702 75.3016 103.319 74.4002 102.667 73.7805C102.033 73.1749 101.147 72.8736 100.13 72.8567C97.3298 72.8031 95.5291 74.5354 94.1552 76.9043C94.1698 76.8142 94.1844 76.7184 94.1961 76.6283C94.4387 74.9495 94.3423 74.3185 93.8161 73.6622C93.8161 73.6622 93.3455 73.0003 91.9862 73.0566C91.498 73.0397 90.8783 73.1186 90.092 73.3806C90.5392 73.8679 90.5363 74.7889 90.1212 77.6113C90.0949 77.7972 88.1685 88.4275 88.1685 88.4275C88.1685 88.4275 88.0428 89.1486 88.8233 89.1486H91.8371C91.8371 89.1486 92.2317 86.9149 92.3019 86.5488C92.641 85.0672 92.9012 83.5264 93.857 81.3603C95.8214 76.9184 98.8937 75.0903 99.8262 76.1072C100.142 76.4536 100.177 77.3127 99.9928 78.5014L98.1892 88.4275C98.1892 88.4275 98.0664 89.1486 98.8469 89.1486H101.855L102.244 86.9825C102.887 83.2673 103.796 81.1632 103.796 81.1632C105.529 77.1522 107.868 75.4678 108.868 75.7917C109.107 75.8706 109.54 76.0931 109.715 76.848C109.818 77.3127 109.818 78.0732 109.674 78.9239C109.511 80.09 108.745 83.3377 108.391 85.7742C108.151 87.4557 108.245 88.0839 108.771 88.743C108.771 88.743 109.242 89.4049 110.601 89.3486C111.086 89.3683 111.709 89.2894 112.492 89.0275C112.045 88.543 111.99 87.5121 112.448 84.7798C112.729 83.1152 113.127 81.3294 113.127 81.3294C113.691 78.6929 113.881 76.4395 113.287 75.0509C112.565 73.358 110.858 72.9327 110.087 72.8707Z" fill="black"/>
<path d="M166.843 72.8735C163.645 72.6313 161.619 74.5664 160.204 76.9465C160.222 76.8423 160.24 76.7353 160.254 76.6311C160.497 74.9523 160.359 74.1861 159.874 73.6651C158.942 72.6595 156.936 73.1214 156.153 73.3834C156.6 73.8707 156.6 74.7917 156.182 77.6141C156.127 77.9944 156.059 78.4056 155.986 78.783H155.995L154.25 88.4303C154.25 88.4303 154.124 89.1514 154.908 89.1514H157.91C157.91 89.1514 158.304 86.9177 158.377 86.5516C158.717 85.07 159.102 83.4841 160.044 81.3125C161.982 76.8085 164.844 75.4368 165.726 75.817C166.083 75.9719 166.352 76.3184 166.469 76.8536C166.571 77.3183 166.574 78.0789 166.425 78.9295C166.264 80.0956 165.495 83.3433 165.145 85.7798C164.902 87.4614 164.998 88.0895 165.522 88.7486C165.522 88.7486 165.995 89.4105 167.352 89.3542C167.837 89.3739 168.459 89.295 169.246 89.0331C168.801 88.5486 168.743 87.5177 169.202 84.7855C169.483 83.1208 169.88 81.335 169.88 81.335C170.444 78.6985 170.646 76.4395 170.041 75.0565C169.304 73.3608 167.53 72.9242 166.843 72.8735Z" fill="black"/>
<path d="M74.643 73.4989C73.5176 73.5665 72.1203 73.682 72.1203 73.682L71.7812 75.5861C71.673 76.1748 71.5386 76.8142 71.4012 77.4479C71.1235 78.507 70.7522 79.6788 70.1267 81.0928C68.1623 85.5348 65.5344 86.8276 64.5463 86.622C64.2219 86.5544 63.874 86.2868 63.7015 85.5545C63.6022 85.0841 63.5934 84.3236 63.7425 83.4786C63.9032 82.3096 64.672 79.0591 65.0228 76.6227C65.2654 74.9467 65.169 74.3129 64.6428 73.6538C64.6428 73.6538 64.1722 72.9919 62.8158 73.051C62.3247 73.0313 61.705 73.1074 60.9216 73.3721C61.3688 73.8594 61.4244 74.8875 60.9654 77.6226C60.6877 79.2845 60.5533 79.6478 60.2843 81.0674C59.9862 82.6842 59.6734 84.4193 59.7962 86.0108C59.9511 87.9825 61.3659 89.3317 63.3303 89.5261C66.423 89.8274 68.5452 87.8248 69.9542 85.5207C69.9396 85.6052 69.9279 85.6869 69.9162 85.7685C69.6765 87.4501 69.7701 88.0783 70.2962 88.7346C70.2962 88.7346 70.7698 89.3993 72.1261 89.3402C72.6143 89.3627 73.234 89.281 74.0204 89.019C73.5702 88.5318 73.5731 87.6135 73.9882 84.7883C74.0467 84.4024 74.111 83.9968 74.1841 83.6166H74.1782L75.2802 77.4648L75.7772 74.7523C75.897 74.0735 75.6603 73.4397 74.643 73.4989Z" fill="black"/>
<path d="M132.183 73.4989C131.06 73.5665 129.663 73.682 129.663 73.682L129.321 75.5861C129.213 76.1748 129.081 76.8142 128.944 77.4479C128.666 78.507 128.295 79.6788 127.669 81.0928C125.705 85.5348 123.077 86.8276 122.089 86.622C121.765 86.5544 121.42 86.2868 121.244 85.5545C121.142 85.0841 121.139 84.3236 121.285 83.4786C121.449 82.3096 122.215 79.0591 122.571 76.6227C122.811 74.9467 122.715 74.3129 122.191 73.6538C122.191 73.6538 121.718 72.9919 120.364 73.051C119.876 73.0313 119.254 73.1074 118.47 73.3721C118.915 73.8594 118.973 74.8875 118.511 77.6226C118.233 79.2845 118.102 79.6478 117.833 81.0674C117.535 82.6842 117.219 84.4193 117.342 86.0108C117.497 87.9825 118.914 89.3317 120.876 89.5261C123.969 89.8274 126.091 87.8248 127.5 85.5207C127.485 85.6052 127.474 85.6869 127.462 85.7685C127.222 87.4501 127.319 88.0783 127.842 88.7346C127.842 88.7346 128.315 89.3993 129.672 89.3402C130.16 89.3627 130.78 89.281 131.566 89.019C131.122 88.5318 131.122 87.6135 131.54 84.7883C131.592 84.4024 131.662 83.9968 131.736 83.6166H131.727L132.829 77.4648L133.323 74.7523C133.446 74.0735 133.206 73.4397 132.183 73.4989Z" fill="black"/>
<path d="M86.4702 62.8714C86.3767 62.8686 86.2685 62.8798 86.1399 62.8996L83.1056 63.5052L78.9781 86.0615C78.7705 87.3487 78.8495 87.867 79.1096 88.3712C79.361 88.8106 79.7586 89.0585 80.1912 89.1965C80.6589 89.3373 81.1442 89.3711 81.5593 89.3599C82.3573 89.3824 83.0033 89.2162 83.0033 89.2162C83.0033 89.2162 82.5941 87.9769 82.9361 86.0277L86.9467 64.0967C87.0607 63.4657 87.1279 62.8714 86.4702 62.8714Z" fill="black"/>
<path d="M116.491 55.6043C82.6116 55.6043 52.3509 47.6217 31.8886 35.3718C31.7366 35.2816 31.5963 35.183 31.4472 35.0732C31.2572 34.9267 31.2104 34.6648 31.3069 34.4479C31.4004 34.2169 31.6372 34.0535 31.9032 34.1042C32.0815 34.1409 32.2891 34.2 32.444 34.2535C55.122 41.6671 84.5087 45.8584 116.491 45.8584C148.471 45.8584 177.855 41.6671 200.538 34.2563C200.685 34.2028 200.892 34.1437 201.082 34.1042C201.333 34.0535 201.567 34.2169 201.684 34.4479C201.76 34.6648 201.731 34.9267 201.515 35.0732C201.386 35.183 201.237 35.2816 201.091 35.3718C180.629 47.6358 150.365 55.6043 116.491 55.6043Z" fill="#8DC63F"/>
<path d="M164.721 117.288C165.029 117.488 165.613 117.503 166.244 117.164C166.244 117.164 169.044 115.857 171.013 113.288C171.398 113.518 171.921 113.872 172.521 114.318C173.183 114.811 174.49 115.934 175.675 116.718C176.613 117.349 176.998 117.441 176.998 117.441C178.121 117.795 178.521 115.918 178.521 115.918C178.521 115.918 177.675 115.672 176.444 114.857C175.352 114.134 174.982 113.857 174.029 113.149C173.352 112.641 172.921 112.303 171.998 111.718C172.444 110.811 172.783 109.78 172.859 108.642C172.859 108.642 172.859 108.257 172.629 108.103C172.152 107.795 170.783 108.072 170.583 108.134C170.275 113.657 163.967 116.349 163.967 116.349C163.967 116.349 164.183 116.949 164.721 117.288Z" fill="#231916"/>
<path d="M179.982 121.334H162.86C162.86 121.334 162.783 122.395 163.029 122.687C163.213 122.903 163.66 122.949 163.998 122.949H178.752C179.321 122.949 179.552 122.887 179.721 122.595C180.044 122.026 179.998 121.318 179.998 121.318L179.982 121.334Z" fill="#231916"/>
<path d="M159.198 107.011C159.198 107.011 158.629 107.072 158.091 107.303C158.229 107.826 158.244 108.626 158.244 109.288V113.472H154.675V109.734C154.675 109.395 154.675 108.934 153.86 108.934H145.675V118.211C145.675 119.134 145.875 119.626 146.198 119.918C146.983 120.58 147.629 120.534 149.645 120.534C152.875 120.534 154.014 120.21 154.014 120.21C154.598 120.134 154.675 119.687 154.691 119.38V115.088H158.26V124.918C158.26 124.918 158.291 125.318 158.598 125.395C159.214 125.58 160.198 125.026 160.383 124.918V108.611C160.383 108.165 160.414 107.534 160.044 107.165C159.875 107.011 159.506 106.98 159.214 107.011H159.198ZM152.521 118.841C152.521 118.841 151.798 119.011 149.921 119.011C149.029 119.011 148.598 119.041 148.152 118.657C147.952 118.487 147.829 118.211 147.829 117.672V110.518H152.521V118.841Z" fill="#231916"/>
<path d="M109.076 118.549C109.076 118.549 108.999 119.58 109.245 119.872C109.43 120.087 109.876 120.134 110.214 120.134H116.537V125.81C116.537 125.81 116.568 126.195 116.876 126.287C117.491 126.472 118.476 125.918 118.66 125.81V120.134H124.876C125.445 120.134 125.676 120.087 125.845 119.795C126.168 119.241 126.122 118.549 126.122 118.549H109.076Z" fill="#231916"/>
<path d="M127.137 121.349C127.137 121.349 127.045 122.41 127.306 122.703C127.491 122.918 127.937 122.964 128.276 122.964H142.937C143.506 122.964 143.737 122.918 143.906 122.626C144.229 122.057 144.183 121.349 144.183 121.349H127.137Z" fill="#231916"/>
<path d="M111.953 116.103H123.245C123.814 116.103 124.045 116.057 124.214 115.764C124.537 115.211 124.491 114.518 124.491 114.518H121.506C121.66 113.887 122.03 112.149 122.183 109.688H122.953C123.522 109.688 123.753 109.641 123.922 109.349C124.245 108.795 124.199 108.103 124.199 108.103H111.122C111.122 108.103 111.03 109.134 111.291 109.426C111.476 109.641 111.922 109.688 112.26 109.688H113.245C113.568 111.472 113.676 113.734 113.707 114.518H110.83C110.83 114.518 110.753 115.549 110.999 115.841C111.184 116.057 111.63 116.103 111.968 116.103H111.953ZM119.953 109.688C119.953 110.303 119.876 111.98 119.476 114.518H115.722C115.722 113.472 115.722 111.564 115.445 109.688H119.968H119.953Z" fill="#231916"/>
<path d="M130.029 116.672C130.522 117.088 131.46 117.257 132.599 117.318C133.968 117.395 135.598 117.38 135.598 117.38C138.783 117.38 140.475 117.088 140.998 117.011C141.752 116.903 141.706 116.088 141.706 116.088V115.303C141.706 115.303 139.198 115.78 135.706 115.78C135.429 115.78 135.014 115.78 134.691 115.78C132.322 115.78 132.045 115.364 132.045 115.364C131.845 115.195 131.722 114.903 131.722 114.365V110.318H140.106C140.675 110.318 140.891 110.257 141.075 109.98C141.368 109.518 141.352 108.703 141.352 108.703H129.506V114.995C129.506 115.918 129.706 116.426 130.029 116.703V116.672Z" fill="#231916"/>
<path d="M72.3996 118.288C72.3996 118.288 72.3073 119.318 72.5688 119.611C72.7534 119.826 73.1996 119.872 73.538 119.872H79.8302V125.795C79.8302 125.795 79.861 126.195 80.1841 126.287C80.8148 126.472 81.8148 125.903 82.0148 125.795V119.872H88.2147C88.7839 119.872 89.0147 119.826 89.1839 119.534C89.507 118.98 89.4608 118.288 89.4608 118.288H72.415H72.3996Z" fill="#231916"/>
<path d="M75.5226 115.287C76.3072 115.949 78.3072 115.903 80.3226 115.903C83.1225 115.903 85.4302 115.657 85.9686 115.595C86.8609 115.457 86.7686 114.611 86.7686 114.611V108.641C86.7686 108.303 86.7686 107.841 85.9532 107.841H74.9842V113.58C74.9842 114.503 75.1842 115.011 75.5073 115.287H75.5226ZM77.1688 109.426H84.5994V114.103C84.5994 114.103 82.4918 114.272 80.6149 114.272C79.338 114.272 77.9995 114.303 77.5072 113.918C77.3072 113.764 77.1842 113.472 77.1842 112.934V109.426H77.1688Z" fill="#231916"/>
<path d="M57.3538 114.18H68.3536C68.9074 114.18 69.1382 114.134 69.292 113.841C69.6151 113.288 69.569 112.626 69.569 112.626H66.5536C66.6459 112.195 67.0152 110.565 67.1536 108.918H68.1074C68.6613 108.918 68.892 108.872 69.0459 108.58C69.369 108.026 69.3228 107.365 69.3228 107.365H56.6153C56.6153 107.365 56.5384 108.365 56.7692 108.657C56.9692 108.903 57.323 108.903 57.6615 108.918H58.6461C58.923 110.718 58.9845 112.195 58.9999 112.626H56.2615C56.2615 112.626 56.1846 113.626 56.4307 113.918C56.6307 114.165 57.0461 114.18 57.3846 114.18H57.3538ZM64.9383 108.918C64.9075 110.057 64.5844 112.334 64.5075 112.626H61.0306C61.0306 112.195 61.046 110.718 60.846 108.918H64.9383Z" fill="#231916"/>
<path d="M103.691 118.364H99.6915C99.6915 118.364 99.5992 119.395 99.8608 119.687C100.045 119.903 100.492 119.949 100.83 119.949H103.691V121.672C103.691 121.672 103.691 122.057 104.03 122.149C104.645 122.333 105.63 121.78 105.814 121.672V108.626C105.814 108.18 105.845 107.549 105.476 107.18C105.307 107.026 104.938 106.98 104.645 107.026C104.645 107.026 104.076 107.088 103.538 107.318C103.676 107.841 103.691 108.641 103.691 109.303V118.38V118.364Z" fill="#231916"/>
<path d="M99.3684 124.518C99.3684 124.518 98.6607 124.518 98.353 124.318C98.0915 124.149 97.953 123.857 97.953 123.333V121.872C97.953 121.41 97.9838 120.78 97.5992 120.426C97.43 120.272 97.0607 120.241 96.7531 120.272C96.7531 120.272 96.1685 120.349 95.63 120.564C95.7685 121.087 95.7838 121.887 95.7838 122.549V123.795C95.7838 124.18 95.8146 124.518 95.9069 124.795C95.9992 125.072 96.1531 125.303 96.3685 125.487C96.5838 125.672 96.8761 125.81 97.2454 125.887C97.6146 125.98 98.2607 126.056 98.8299 126.056C103.199 126.226 105.645 125.795 105.645 125.795C106.199 125.687 106.214 125.318 106.214 125.01V124.18C106.214 124.18 103.138 124.703 99.353 124.487L99.3684 124.518Z" fill="#231916"/>
<path d="M54.0308 115.672C54.0308 115.672 53.9385 116.703 54.2 116.995C54.3846 117.21 54.8308 117.257 55.1692 117.257H61.7999V118.78H57.0153C57.0153 118.78 56.9384 119.78 57.1692 120.072C57.3692 120.318 57.7845 120.318 58.123 120.334H66.5382V121.703H57.0615V124.133C57.0615 124.518 57.0769 124.81 57.1846 125.133C57.2769 125.41 57.4307 125.641 57.6461 125.81C57.8615 125.995 58.2153 126.133 58.5845 126.195C59.6922 126.395 64.0152 126.318 64.0152 126.318C67.1844 126.318 68.4767 126.026 68.4767 126.026C69.0305 125.918 69.0459 125.564 69.0459 125.257V124.426C69.0459 124.426 67.1382 124.841 61.4768 124.78H60.6922C60.2768 124.78 59.7845 124.733 59.523 124.533C59.3076 124.38 59.2307 124.057 59.2307 123.657V123.226H68.0305C68.6151 123.149 68.692 122.703 68.692 122.395V119.672C68.692 119.334 68.6151 118.764 67.7998 118.764H63.9383V117.241H70.5228C71.092 117.241 71.3228 117.195 71.492 116.903C71.8151 116.349 71.7689 115.657 71.7689 115.657H54L54.0308 115.672Z" fill="#231916"/>
<path d="M96.4607 116.749C97.6607 116.734 100.03 116.626 101.476 116.149C101.676 116.072 101.891 116.041 101.922 115.672C101.968 115.257 101.922 114.672 101.922 114.672C101.922 114.672 99.0761 115.18 95.6608 115.18H90.8455C90.8455 115.18 90.7532 116.211 91.0147 116.503C91.1993 116.718 91.6454 116.764 91.9839 116.764H94.2608C93.7993 119.549 92.0454 121.441 92.0454 121.441C92.5993 121.98 93.0454 122.026 93.0454 122.026C93.4916 122.087 93.8146 121.749 93.8146 121.749C93.8146 121.749 95.4608 120.287 96.1992 117.857C96.3069 117.518 96.3992 117.149 96.4607 116.764V116.749Z" fill="#231916"/>
<path d="M96.2301 114.103C98.7992 114.072 100.645 112.703 100.645 110.564C100.645 108.411 98.7839 107.041 96.2301 107.011C93.6609 107.041 91.8148 108.395 91.8148 110.549C91.8148 112.703 93.6763 114.072 96.2301 114.103ZM93.907 110.549C93.907 109.595 94.6147 108.595 96.2301 108.595C97.8454 108.595 98.5377 109.58 98.5377 110.549C98.5377 111.518 97.83 112.503 96.2301 112.503C94.6301 112.503 93.907 111.518 93.907 110.549Z" fill="#231916"/>
<path d="M179.109 203.185C175.999 199.872 170.362 195.234 165.557 191.968C166.681 188.66 167.209 185.157 167.209 181.46C167.209 181.013 167.146 180.631 166.807 180.409C166.651 180.308 166.46 180.256 166.246 180.227C166.032 180.198 165.772 180.19 165.464 180.19C165.464 180.19 165.463 180.19 165.463 180.19L160.57 180.122L160.317 180.118V180.372C160.317 186.181 159.068 190.947 156.527 195.23C153.983 199.517 150.135 203.336 144.913 207.236L144.694 207.399L144.876 207.603L147.73 210.796C147.924 211.025 148.112 211.204 148.316 211.315C148.53 211.433 148.75 211.47 148.987 211.431C149.215 211.394 149.448 211.289 149.698 211.145C149.95 211 150.239 210.802 150.578 210.565L150.578 210.565C156.216 206.605 160.281 202.373 163.023 197.672C167.443 200.98 172.422 205.446 176.152 209.842L176.272 209.983L176.442 209.909C177.479 209.46 178.385 208.921 179.071 208.341C179.752 207.764 180.24 207.126 180.394 206.473L180.394 206.472C180.625 205.473 180.225 204.371 179.109 203.185ZM179.109 203.185L178.927 203.356L179.109 203.185C179.109 203.185 179.109 203.185 179.109 203.185ZM186.79 238.608L186.8 238.612L186.811 238.615C187.546 238.836 188.51 238.794 189.454 238.649C190.406 238.501 191.371 238.243 192.127 238.002L192.301 237.947V237.764V215.868C192.301 215.313 192.218 214.868 191.933 214.573C191.646 214.274 191.214 214.19 190.691 214.19H185.523H185.273V214.44V221.466H163.741V215.868C163.741 215.313 163.658 214.871 163.385 214.576C163.108 214.275 162.692 214.19 162.199 214.19H157.031H156.781V214.44V233.072C156.781 234.753 157.035 235.84 157.75 236.593C158.454 237.334 159.564 237.703 161.121 238.075L161.122 238.075C165.231 239.034 168.928 239.17 173.963 239.17C178.013 239.17 182.329 238.769 185.922 238.166C186.031 238.254 186.154 238.325 186.278 238.387C186.44 238.468 186.618 238.539 186.785 238.606L186.79 238.608ZM201.957 186.832V186.582H201.707H192.165V180.236C192.165 179.683 192.083 179.248 191.79 178.968C191.501 178.69 191.068 178.626 190.555 178.626H185.387H185.137V178.876V209.136C185.137 209.786 185.281 210.325 185.547 210.762C185.813 211.199 186.191 211.518 186.635 211.74C187.318 212.081 188.301 212.088 189.26 211.968C190.232 211.847 191.233 211.587 191.991 211.346L192.165 211.291V211.108V203.266H200.279C200.572 203.266 200.826 203.253 201.039 203.21C201.255 203.166 201.448 203.087 201.599 202.941C201.752 202.795 201.839 202.605 201.89 202.383C201.94 202.164 201.957 201.9 201.957 201.588V198.188V197.938H201.707H192.165V191.91H200.279C200.572 191.91 200.826 191.897 201.039 191.854C201.255 191.81 201.448 191.731 201.599 191.585C201.752 191.439 201.839 191.249 201.89 191.027C201.94 190.808 201.957 190.544 201.957 190.232V186.832ZM164.571 232.761L164.571 232.761L164.567 232.76C164.121 232.658 163.968 232.572 163.883 232.432C163.836 232.355 163.798 232.241 163.774 232.054C163.749 231.867 163.741 231.625 163.741 231.304V226.862H185.273V232.728C182.093 233.314 178.975 233.638 175.663 233.638C170.768 233.638 167.259 233.433 164.571 232.761Z" fill="white" stroke="white" stroke-width="0.5"/>
<path d="M106.4 199.57C111.011 202.745 115.995 207.211 119.864 211.48L119.99 211.618L120.158 211.537C121.161 211.053 122.066 210.462 122.751 209.839C123.426 209.225 123.916 208.552 124.034 207.894C124.264 206.888 123.785 205.786 122.674 204.675C119.432 201.433 113.863 196.998 108.925 193.931C110.185 190.086 110.847 186.042 110.847 181.8C110.847 181.353 110.784 180.971 110.445 180.749C110.29 180.648 110.098 180.596 109.885 180.567C109.67 180.538 109.41 180.53 109.103 180.53C109.103 180.53 109.102 180.53 109.101 180.53L104.209 180.462L103.955 180.458V180.712C103.955 186.932 102.705 192.143 100.161 196.767C97.6165 201.393 93.7688 205.448 88.5518 209.344L88.333 209.507L88.5149 209.711L91.3688 212.904C91.5624 213.133 91.751 213.312 91.9546 213.423C92.1682 213.541 92.3883 213.578 92.626 213.539C92.8532 213.502 93.0862 213.397 93.3366 213.253C93.5885 213.108 93.8773 212.91 94.2165 212.673C94.2166 212.673 94.2166 212.673 94.2167 212.673L106.4 199.57ZM101.009 216.434H100.759V216.684V220.016C100.759 220.63 100.839 221.106 101.162 221.406C101.48 221.701 101.966 221.762 102.573 221.762H130.475V236.472C130.475 237.798 131.147 238.627 132.037 239.073C132.722 239.452 133.707 239.475 134.658 239.355C135.624 239.233 136.613 238.955 137.342 238.678L137.503 238.616V238.444V218.588C137.503 217.839 137.325 217.276 136.897 216.91C136.479 216.553 135.876 216.434 135.145 216.434H101.009ZM137.329 213.454L137.503 213.399V213.216V180.236C137.503 179.683 137.421 179.248 137.129 178.968C136.839 178.69 136.407 178.626 135.893 178.626H130.725H130.475V178.876V211.244C130.475 211.894 130.62 212.433 130.886 212.87C131.152 213.307 131.53 213.626 131.974 213.848C132.657 214.189 133.64 214.196 134.598 214.076C135.57 213.955 136.572 213.695 137.329 213.454Z" fill="white" stroke="white" stroke-width="0.5"/>
<path d="M85.97 205.26V205.01H85.72H59.722V193.836C59.722 193.286 59.641 192.859 59.3397 192.594C59.0483 192.338 58.6152 192.294 58.112 192.294H52.944H52.694V192.544V205.01H32H31.75V205.26V208.524C31.75 209.128 31.81 209.606 32.1122 209.908C32.4145 210.21 32.8916 210.27 33.496 210.27H84.224C84.8284 210.27 85.3055 210.21 85.6078 209.908C85.91 209.606 85.97 209.128 85.97 208.524V205.26ZM40.976 179.782H40.726V180.032V183.296V183.311C40.726 183.655 40.726 183.938 40.7497 184.159C40.7737 184.381 40.8255 184.59 40.9699 184.748C41.1172 184.909 41.3208 184.975 41.5431 185.007C41.7646 185.038 42.0507 185.042 42.404 185.042H69.9058C70.085 191.014 69.4715 195.418 67.9382 200.151L67.8505 200.422L68.1302 200.474L72.1422 201.222L72.1422 201.222L72.1469 201.223C72.5567 201.291 72.8894 201.332 73.1613 201.33C73.4354 201.328 73.6713 201.281 73.8708 201.152C74.0705 201.023 74.2023 200.831 74.3082 200.603C74.4125 200.378 74.5023 200.093 74.6035 199.756L74.6037 199.755C75.9034 195.377 76.654 191.409 76.654 183.024C76.654 181.855 76.4682 181.023 75.9754 180.491C75.4768 179.953 74.722 179.782 73.752 179.782H40.976ZM74.75 227.632C74.75 223.577 73.0658 220.343 70.234 218.128C67.4085 215.917 63.4567 214.734 58.928 214.734C54.3992 214.734 50.4641 215.917 47.6554 218.128C44.8405 220.343 43.174 223.578 43.174 227.632C43.174 231.652 44.8408 234.887 47.655 237.11C50.4634 239.329 54.3984 240.53 58.928 240.53C63.4575 240.53 67.4092 239.329 70.2344 237.111C73.0654 234.887 74.75 231.653 74.75 227.632ZM68.062 227.632C68.062 231.934 64.2829 234.998 58.928 234.998C53.5731 234.998 49.794 231.934 49.794 227.632C49.794 225.433 50.7432 223.6 52.3523 222.311C53.9655 221.018 56.253 220.266 58.928 220.266C61.603 220.266 63.8905 221.018 65.5037 222.311C67.1128 223.6 68.062 225.433 68.062 227.632Z" fill="white" stroke="white" stroke-width="0.5"/>
</svg>
