<svg width="234" height="267" viewBox="0 0 234 267" fill="none" xmlns="http://www.w3.org/2000/svg">
<path d="M0 27.5344C0 12.3276 12.0044 0 26.8125 0H207.187C221.996 0 234 12.3276 234 27.5344V239.466C234 254.672 221.996 267 207.187 267H26.8125C12.0044 267 0 254.672 0 239.466V27.5344Z" fill="#251300"/>
<path d="M6 28.6909C6 16.1591 15.5008 6 27.2206 6H206.779C218.499 6 228 16.1591 228 28.6909V150H6V28.6909Z" fill="white"/>
<path d="M59.786 97.2816C58.5337 100.536 57.3503 103.753 56.289 106.887C55.2277 110.02 54.6493 111.671 54.6015 111.808H53.0573C53.0202 111.671 52.6222 110.484 51.8581 108.284C51.0939 106.085 50.1016 103.332 48.8599 100.056H48.828C47.7667 102.762 46.7479 105.373 45.8245 107.847C44.9012 110.32 44.4395 111.655 44.3706 111.808H42.7786C42.7361 111.591 42.2479 110.152 41.3618 107.472C40.4756 104.793 39.3081 101.438 37.7852 97.4135L39.6053 96.6909C39.6053 96.7963 40.0723 98.0886 40.9054 100.599C41.7385 103.11 42.6884 105.916 43.755 109.039L43.8187 108.959C44.9649 106.106 45.9413 103.495 46.8009 101.116C47.6606 98.7374 48.0798 97.4979 48.117 97.3818H49.8522C49.884 97.519 50.3192 98.8534 51.1947 101.427C52.0703 104.001 52.9406 106.502 53.848 108.959C55.0367 105.742 56.029 102.915 56.8409 100.52C57.6528 98.1255 58.0826 96.828 58.1091 96.6961L59.7648 97.2658L59.786 97.2816Z" fill="#6A8A22"/>
<path d="M75.3925 111.739H73.5935C73.5935 111.301 73.5935 110.484 73.5935 109.281C73.5935 108.079 73.5935 106.644 73.5935 104.861H64.5724C64.5724 106.908 64.5724 108.453 64.5724 109.497C64.5724 110.542 64.5724 111.301 64.5724 111.739H62.8319C62.8319 111.301 62.8319 110.505 62.8319 109.381C62.8319 108.258 62.8319 106.349 62.8319 103.674C62.8319 102.862 62.8319 101.876 62.8319 100.71C62.8319 99.5443 62.8319 98.2837 62.8319 96.944H64.6467C64.6467 98.0675 64.6467 99.1804 64.6467 100.256C64.6467 101.332 64.6467 102.366 64.6467 103.358H73.6678C73.6678 102.371 73.6678 101.343 73.6678 100.283C73.6678 99.2226 73.6678 98.0727 73.6678 96.944H75.3925C75.3925 98.0569 75.3924 99.3333 75.3659 100.794C75.3394 102.255 75.3659 103.432 75.3659 104.355C75.3659 106.528 75.3659 108.195 75.3659 109.344C75.3659 110.494 75.3659 111.301 75.3925 111.739Z" fill="#6A8A22"/>
<path d="M90.8615 107.24C90.5563 108.006 90.0895 108.699 89.4925 109.271C89.0471 109.716 88.5214 110.074 87.9429 110.326C87.3566 110.568 86.7262 110.689 86.091 110.679C85.4535 110.684 84.8216 110.56 84.2337 110.315C83.6775 110.086 83.1697 109.755 82.7372 109.339C82.114 108.745 81.6256 108.026 81.3045 107.229C80.9439 106.329 80.7637 105.366 80.7738 104.397C80.771 103.468 80.9364 102.546 81.262 101.675C81.5579 100.857 82.0307 100.114 82.647 99.4969C83.0954 99.0358 83.6383 98.676 84.239 98.442C84.8287 98.1973 85.4626 98.0752 86.1016 98.0833C86.7372 98.0743 87.3678 98.1964 87.9536 98.442C88.5043 98.6819 89.0075 99.0177 89.4394 99.4336C90.1127 100.078 90.6205 100.874 90.9199 101.754C91.2329 102.661 91.3942 103.613 91.3975 104.571C91.414 105.505 91.2332 106.432 90.8668 107.293L90.8615 107.24ZM92.7453 101.153C92.3827 100.179 91.8187 99.2915 91.0897 98.5475C90.4619 97.9079 89.7112 97.4003 88.8822 97.0548C87.9985 96.7015 87.0541 96.5224 86.1016 96.5273C85.1349 96.5251 84.1779 96.7189 83.2891 97.097C82.4126 97.4505 81.6247 97.9906 80.9808 98.6793C80.2894 99.4042 79.7485 100.257 79.3888 101.19C79.0258 102.186 78.8461 103.238 78.8582 104.297C78.8457 105.488 79.0806 106.67 79.548 107.767C79.9436 108.723 80.5365 109.586 81.2886 110.299C81.9207 110.91 82.672 111.386 83.4961 111.697C84.3252 112.023 85.21 112.186 86.1016 112.177C87.0095 112.184 87.9103 112.018 88.7548 111.686C89.6341 111.324 90.4289 110.785 91.0897 110.104C91.7783 109.397 92.3193 108.562 92.6817 107.646C93.1002 106.601 93.3093 105.485 93.2972 104.36C93.3053 103.27 93.1148 102.187 92.7347 101.164L92.7453 101.153Z" fill="#6A8A22"/>
<path d="M105.958 111.739C105.879 111.739 105.428 111.739 104.563 111.739H101.32H98.8581C98.0781 111.739 97.4147 111.739 96.8788 111.739C96.8788 110.473 96.8912 109.186 96.9159 107.878V104.044C96.9159 101.934 96.9159 100.351 96.9159 99.2542C96.9159 98.1571 96.9159 97.3818 96.9159 96.944H98.7414C98.7148 97.8987 98.6989 98.9958 98.683 100.246C98.6671 101.496 98.683 102.519 98.683 103.316C98.683 105.251 98.683 106.865 98.683 108.168C98.683 109.471 98.683 110.151 98.683 110.22H100.938C102.249 110.22 103.406 110.22 104.377 110.22H105.932V111.802L105.958 111.739Z" fill="#6A8A22"/>
<path d="M118.158 111.739C118.068 111.739 117.59 111.739 116.651 111.739H113.249H110.676C109.896 111.739 109.227 111.739 108.691 111.739C108.691 111.317 108.691 110.373 108.728 108.954C108.765 107.535 108.728 106.048 108.728 104.524C108.728 103.674 108.728 102.577 108.728 101.216C108.728 99.8555 108.728 98.405 108.691 96.944H110.654C111.456 96.944 112.246 96.944 113.095 96.944C114.507 96.944 115.658 96.944 116.545 96.944H117.983V98.4894H116.598C115.749 98.4894 114.666 98.4894 113.414 98.4894H110.532C110.532 99.3281 110.532 100.167 110.532 101.016C110.532 101.865 110.532 102.64 110.532 103.395H112.92C114.21 103.395 115.393 103.395 116.396 103.395C117.399 103.395 117.988 103.395 118.03 103.395V104.94H116.2C115.038 104.94 113.982 104.909 113.016 104.909H110.532C110.532 106.317 110.532 107.43 110.532 108.263C110.532 109.097 110.532 109.756 110.559 110.315C110.999 110.315 111.519 110.315 112.151 110.347H114.146C115.244 110.347 116.173 110.347 116.927 110.347C117.68 110.347 118.094 110.347 118.211 110.347V111.866L118.158 111.739Z" fill="#6A8A22"/>
<path d="M139.07 98.4895H137.606C136.757 98.4895 135.727 98.4895 134.496 98.4895H131.806C131.806 99.3282 131.806 100.241 131.774 101.222C131.742 102.203 131.774 103.078 131.774 103.817H133.737C134.947 103.817 136.083 103.817 137.16 103.817C138.237 103.817 138.837 103.79 138.959 103.79V105.373H136.911C135.69 105.373 134.592 105.373 133.631 105.373H131.774C131.774 106.676 131.774 107.91 131.774 109.065C131.774 110.22 131.806 111.175 131.811 111.866H129.98C129.98 111.412 129.98 110.61 129.98 109.492C129.98 108.374 129.98 106.739 129.98 104.608C129.98 103.769 129.98 102.662 129.98 101.311C129.98 99.9611 129.98 98.5264 129.98 97.0917H131.949C132.734 97.0917 133.541 97.0917 134.422 97.0917C135.711 97.0917 136.778 97.0917 137.638 97.0917H139.076V98.6372L139.07 98.4895Z" fill="#6A8A22"/>
<path d="M153.191 107.24C152.872 108 152.405 108.691 151.817 109.271C151.371 109.718 150.843 110.076 150.262 110.326C149.676 110.57 149.045 110.69 148.41 110.679C147.772 110.682 147.141 110.558 146.552 110.315C145.997 110.078 145.487 109.748 145.045 109.339C144.424 108.747 143.94 108.027 143.629 107.229C143.263 106.33 143.082 105.367 143.098 104.397C143.106 103.465 143.286 102.543 143.629 101.675C143.932 100.86 144.406 100.117 145.019 99.4969C145.46 99.0413 145.991 98.682 146.579 98.442C147.168 98.2005 147.799 98.0785 148.436 98.0833C149.074 98.0716 149.707 98.1938 150.294 98.442C150.846 98.6817 151.351 99.0175 151.785 99.4336C152.452 100.08 152.954 100.876 153.249 101.754C153.573 102.658 153.738 103.611 153.738 104.571C153.749 105.505 153.568 106.431 153.207 107.293L153.191 107.24ZM155.064 101.153C154.702 100.173 154.134 99.2813 153.398 98.5369C152.767 97.8935 152.01 97.3855 151.174 97.0442C150.293 96.69 149.35 96.5109 148.399 96.5167C147.436 96.5156 146.483 96.7094 145.597 97.0864C144.721 97.4375 143.934 97.978 143.294 98.6688C142.6 99.3917 142.059 100.245 141.702 101.179C141.337 102.174 141.157 103.227 141.172 104.286C141.157 105.484 141.399 106.671 141.883 107.767C142.261 108.728 142.851 109.593 143.607 110.299C144.24 110.91 144.991 111.386 145.815 111.697C146.642 112.023 147.525 112.186 148.415 112.177C149.323 112.184 150.224 112.017 151.068 111.686C151.943 111.321 152.734 110.783 153.393 110.104C154.086 109.401 154.628 108.565 154.985 107.646C155.407 106.602 155.619 105.485 155.611 104.36C155.609 103.27 155.417 102.188 155.043 101.164L155.064 101.153Z" fill="#6A8A22"/>
<path d="M169.933 107.24C169.622 108.003 169.156 108.694 168.564 109.271C168.111 109.712 167.583 110.069 167.004 110.326C165.813 110.806 164.48 110.806 163.289 110.326C162.732 110.093 162.221 109.762 161.782 109.35C161.159 108.757 160.672 108.037 160.355 107.24C159.989 106.341 159.808 105.377 159.824 104.407C159.827 103.475 160.007 102.552 160.355 101.686C160.65 100.866 161.125 100.122 161.745 99.5074C162.186 99.0508 162.717 98.6892 163.305 98.4451C163.893 98.201 164.525 98.0797 165.162 98.0886C165.8 98.0789 166.432 98.2011 167.019 98.4472C167.571 98.6883 168.076 99.0239 168.511 99.4389C169.177 100.088 169.682 100.883 169.986 101.76C170.301 102.666 170.463 103.618 170.463 104.576C170.477 105.51 170.297 106.437 169.933 107.298V107.24ZM171.801 101.153C171.446 100.178 170.885 99.2892 170.156 98.5475C169.524 97.9052 168.767 97.3974 167.932 97.0548C167.052 96.7021 166.111 96.5229 165.162 96.5273C164.194 96.5256 163.235 96.7194 162.344 97.0969C161.471 97.4532 160.685 97.993 160.041 98.6793C159.349 99.4031 158.807 100.257 158.449 101.19C158.089 102.186 157.91 103.238 157.919 104.297C157.901 105.476 158.125 106.646 158.577 107.736C158.971 108.692 159.564 109.555 160.317 110.268C160.946 110.883 161.698 111.359 162.525 111.665C163.352 111.99 164.235 112.153 165.125 112.145C166.057 112.161 166.982 111.985 167.841 111.627C168.701 111.269 169.476 110.738 170.119 110.067C170.804 109.358 171.345 108.523 171.71 107.609C172.133 106.565 172.344 105.448 172.331 104.323C172.34 103.232 172.148 102.149 171.764 101.127L171.801 101.153Z" fill="#6A8A22"/>
<path d="M185.736 107.129C185.214 107.91 184.519 108.561 183.704 109.033C182.931 109.463 182.1 109.779 181.236 109.972C180.282 110.189 179.307 110.3 178.328 110.304H177.766C177.766 108.195 177.766 106.559 177.739 105.373C177.713 104.186 177.739 103.426 177.739 103.094V101.264C177.739 100.494 177.739 99.5338 177.771 98.3681H178.339C179.279 98.3773 180.216 98.4816 181.136 98.6793C182.121 98.8703 183.062 99.2424 183.911 99.7764C184.74 100.258 185.422 100.954 185.885 101.791C186.303 102.593 186.516 103.484 186.506 104.386C186.527 105.356 186.259 106.31 185.736 107.129ZM187.631 101.074C187.049 100.053 186.212 99.1994 185.2 98.5949C184.216 97.9955 183.141 97.5574 182.016 97.2974C180.671 97.0225 179.299 96.8917 177.925 96.907H176.954H175.94C175.94 98.6635 175.978 100.167 175.978 101.401V104.444C175.978 105.932 175.978 107.504 175.978 109.16C175.978 110.816 175.978 111.665 175.978 111.702H176.8C177.283 111.702 177.803 111.702 178.318 111.702C179.568 111.716 180.815 111.581 182.032 111.301C183.072 111.037 184.07 110.633 184.999 110.099C186.009 109.519 186.866 108.709 187.498 107.736C188.158 106.722 188.496 105.535 188.469 104.328C188.49 103.171 188.22 102.027 187.684 101L187.631 101.074Z" fill="#6A8A22"/>
<path d="M199.566 107.562C199.591 108.267 199.407 108.964 199.035 109.566C198.668 110.132 198.169 110.602 197.581 110.937C196.981 111.281 196.332 111.53 195.655 111.676C194.867 111.854 194.06 111.941 193.251 111.934C192.79 111.934 192.285 111.934 191.797 111.871C191.309 111.808 190.969 111.808 190.879 111.808L190.789 110.257C190.911 110.257 191.192 110.32 191.67 110.357C192.147 110.394 192.731 110.415 193.357 110.415C193.869 110.406 194.378 110.353 194.88 110.257C195.376 110.195 195.861 110.062 196.318 109.861C196.708 109.681 197.053 109.416 197.327 109.086C197.572 108.747 197.698 108.338 197.687 107.92C197.702 107.473 197.576 107.032 197.327 106.66C197.011 106.252 196.614 105.914 196.159 105.668C195.72 105.415 195.269 105.184 194.806 104.977C194.285 104.744 193.78 104.478 193.294 104.181C192.64 103.824 192.084 103.313 191.675 102.693C191.351 102.145 191.18 101.52 191.182 100.884C191.17 100.27 191.322 99.6643 191.622 99.1277C191.918 98.6267 192.311 98.1892 192.779 97.8407C193.306 97.4657 193.9 97.1952 194.53 97.0442C195.282 96.8705 196.051 96.7855 196.823 96.791C197.279 96.791 197.762 96.791 198.223 96.791L199.035 96.8385L199.2 98.4209C199.131 98.4209 198.86 98.3734 198.377 98.3259C197.894 98.2784 197.316 98.2732 196.616 98.2732C196.186 98.2748 195.758 98.3172 195.337 98.3998C194.924 98.477 194.527 98.6232 194.164 98.8323C193.858 99.0091 193.599 99.257 193.41 99.5549C193.193 99.8731 193.081 100.251 193.092 100.636C193.098 101 193.208 101.356 193.41 101.659C193.745 102.094 194.168 102.454 194.652 102.714C194.955 102.888 195.363 103.105 195.862 103.342C196.361 103.579 196.865 103.869 197.348 104.123C198.02 104.501 198.597 105.026 199.035 105.658C199.403 106.233 199.598 106.901 199.598 107.583L199.566 107.562Z" fill="#6A8A22"/>
<path d="M73.4081 58.1865C72.3855 55.4239 70.7869 52.9075 68.7171 50.8021C66.9242 48.989 64.7819 47.5539 62.4183 46.5825C59.9151 45.5305 57.2239 44.9922 54.5062 45.0001C51.7543 44.9905 49.0294 45.5398 46.4987 46.6141C44.0124 47.6713 41.7777 49.2366 39.9398 51.2083C38.0029 53.2747 36.4938 55.6995 35.4983 58.3448C34.4756 61.1689 33.9688 64.152 34.0018 67.1533C33.9613 70.4967 34.6002 73.8138 35.8803 76.9059C37.0165 79.628 38.7076 82.0867 40.8472 84.1268C42.6504 85.8484 44.7785 87.1982 47.1089 88.0986C49.4703 88.9954 51.9784 89.4496 54.5062 89.4383C57.0841 89.4564 59.6412 88.9782 62.0362 88.03C64.53 86.9973 66.7881 85.4741 68.6746 83.5519C70.6669 81.5456 72.2301 79.1593 73.2701 76.5367C74.4657 73.5693 75.0625 70.3971 75.0266 67.2008C75.0457 64.1184 74.5065 61.0578 73.4346 58.1654L73.4081 58.1865ZM67.3745 75.1231C66.529 77.1923 65.2647 79.0666 63.66 80.6298C62.451 81.8105 61.0311 82.7567 59.4731 83.42C57.8896 84.0662 56.1936 84.396 54.4818 84.3906C52.7701 84.3852 51.0762 84.0446 49.4969 83.3884C47.9994 82.757 46.6281 81.8638 45.448 80.7511C43.7522 79.1195 42.4356 77.1393 41.5901 74.9491C40.633 72.4693 40.1629 69.8301 40.2051 67.1744C40.1996 64.6461 40.6526 62.1375 41.5424 59.7689C42.3617 57.5503 43.6397 55.5271 45.2941 53.8297C46.4994 52.6216 47.9307 51.6594 49.5075 50.9973C51.0906 50.342 52.7914 50.0136 54.5062 50.0321C56.2104 50.0178 57.8998 50.3462 59.4731 50.9973C60.9673 51.6388 62.3306 52.5469 63.4955 53.6768C65.3148 55.4398 66.683 57.6101 67.486 60.0063C68.3583 62.4726 68.8103 65.0664 68.8232 67.6807C68.859 70.2289 68.3658 72.7571 67.3745 75.1073V75.1231Z" fill="#251300"/>
<path d="M87.7732 45.997L84.2391 46.0919V46.5192L84.4142 61.673V67.3695L84.3505 80.5981L84.255 88.204H90.2514L90.1718 78.6624L90.1028 67.1955V60.866C90.1028 60.866 90.2195 51.7779 90.2301 50.9867H92.3528L95.9612 51.1186C97.2117 51.2037 98.4432 51.4684 99.6174 51.9045C100.906 52.3511 102.032 53.1703 102.849 54.257C103.649 55.3721 104.059 56.7173 104.016 58.0863C104.081 59.4323 103.815 60.7738 103.242 61.9947C102.737 62.9163 102.086 63.7515 101.315 64.4685C100.349 65.3205 99.2798 66.0488 98.1316 66.6364C97.1707 67.1847 96.1507 67.6235 95.0909 67.9445L94.7884 68.0183L94.7142 68.7937L107.604 83.4095L112.725 89.0743L113.069 88.779L117.262 85.303L111.504 79.3375C108.256 75.9565 105.242 72.6388 102.515 69.453C104.321 68.2942 105.963 66.8998 107.397 65.3072C109.292 63.2336 110.309 60.5126 110.236 57.7118C110.278 55.5095 109.621 53.35 108.357 51.5406C107.073 49.7794 105.32 48.4094 103.295 47.5846C101.673 46.897 99.9615 46.4407 98.2112 46.2291C96.4496 46.027 94.6779 45.9248 92.9046 45.9232L87.7626 45.997H87.7732Z" fill="#251300"/>
<path d="M140.769 82.8504C138.354 82.3947 136.015 81.6028 133.823 80.4979C131.443 79.3029 129.401 77.5349 127.885 75.3552C126.372 73.1874 125.597 70.4077 125.597 67.0742C125.602 64.4345 126.368 61.8515 127.805 59.6318C129.302 57.2694 131.41 55.3496 133.907 54.0724C136.038 52.992 138.313 52.2177 140.663 51.7727C143.489 51.2257 146.364 50.9624 149.243 50.9868H152.125L151.668 45.7122H148.622C145.415 45.6961 142.215 46.0054 139.071 46.6353C136.212 47.1953 133.445 48.1486 130.851 49.4677C127.484 51.1533 124.6 53.657 122.467 56.7466C120.435 59.7863 119.378 63.3671 119.437 67.0162C119.384 69.8615 119.926 72.6866 121.029 75.313C121.997 77.607 123.431 79.6774 125.242 81.3946C128.05 84.0534 131.481 85.9749 135.223 86.9856C137.31 87.5616 139.439 87.9691 141.591 88.2041C141.591 88.2041 147.911 88.895 153.701 87.4445L153.664 83.6363L153.637 76.7003L153.69 71.7844L153.791 66.1564H147.757L147.885 79.1898C147.885 79.1898 147.885 82.1911 147.911 82.9506C144.834 83.6679 140.753 82.8504 140.753 82.8504H140.769Z" fill="#251300"/>
<path d="M194.085 72.5387L181.816 45.5276H177.21L164.952 72.1114L158.144 86.5954L158.51 86.7958L163.132 89.2274L165.286 84.3959C165.286 84.3959 169.972 74.0367 170.189 73.5408H187.892C188.115 74.0314 192.668 84.206 192.668 84.206L194.79 89.1905L195.22 89.0059L200.463 86.3686L194.085 72.5387ZM172.37 68.7041C172.843 67.6492 175.698 61.2617 175.698 61.2617C175.698 61.2617 178.526 54.9797 179.104 53.719C179.672 54.9902 182.559 61.4885 182.559 61.4885C182.559 61.4885 185.271 67.6544 185.743 68.7041H172.37Z" fill="#251300"/>
<path d="M179.109 203.185C175.999 199.872 170.362 195.234 165.557 191.968C166.681 188.66 167.209 185.157 167.209 181.46C167.209 181.013 167.146 180.631 166.807 180.409C166.651 180.308 166.46 180.256 166.246 180.227C166.032 180.198 165.772 180.19 165.464 180.19C165.464 180.19 165.463 180.19 165.463 180.19L160.57 180.122L160.317 180.118V180.372C160.317 186.181 159.068 190.947 156.527 195.23C153.983 199.517 150.135 203.336 144.913 207.236L144.694 207.399L144.876 207.603L147.73 210.796C147.924 211.025 148.112 211.204 148.316 211.315C148.53 211.433 148.75 211.47 148.987 211.431C149.215 211.394 149.448 211.289 149.698 211.145C149.95 211 150.239 210.802 150.578 210.565L150.578 210.565C156.216 206.605 160.281 202.373 163.023 197.672C167.443 200.98 172.422 205.446 176.152 209.842L176.272 209.983L176.442 209.909C177.479 209.46 178.385 208.921 179.071 208.341C179.752 207.764 180.24 207.126 180.394 206.473L180.394 206.472C180.625 205.473 180.225 204.371 179.109 203.185ZM179.109 203.185L178.927 203.356L179.109 203.185C179.109 203.185 179.109 203.185 179.109 203.185ZM186.79 238.608L186.8 238.612L186.811 238.615C187.546 238.836 188.51 238.794 189.454 238.649C190.406 238.501 191.371 238.243 192.127 238.002L192.301 237.947V237.764V215.868C192.301 215.313 192.218 214.868 191.933 214.573C191.646 214.274 191.214 214.19 190.691 214.19H185.523H185.273V214.44V221.466H163.741V215.868C163.741 215.313 163.658 214.871 163.385 214.576C163.108 214.275 162.692 214.19 162.199 214.19H157.031H156.781V214.44V233.072C156.781 234.753 157.035 235.84 157.75 236.593C158.454 237.334 159.564 237.703 161.121 238.075L161.122 238.075C165.231 239.034 168.928 239.17 173.963 239.17C178.013 239.17 182.329 238.769 185.922 238.166C186.031 238.254 186.154 238.325 186.278 238.387C186.44 238.468 186.618 238.539 186.785 238.606L186.79 238.608ZM201.957 186.832V186.582H201.707H192.165V180.236C192.165 179.683 192.083 179.248 191.79 178.968C191.501 178.69 191.068 178.626 190.555 178.626H185.387H185.137V178.876V209.136C185.137 209.786 185.281 210.325 185.547 210.762C185.813 211.199 186.191 211.518 186.635 211.74C187.318 212.081 188.301 212.088 189.26 211.968C190.232 211.847 191.233 211.587 191.991 211.346L192.165 211.291V211.108V203.266H200.279C200.572 203.266 200.826 203.253 201.039 203.21C201.255 203.166 201.448 203.087 201.599 202.941C201.752 202.795 201.839 202.605 201.89 202.383C201.94 202.164 201.957 201.9 201.957 201.588V198.188V197.938H201.707H192.165V191.91H200.279C200.572 191.91 200.826 191.897 201.039 191.854C201.255 191.81 201.448 191.731 201.599 191.585C201.752 191.439 201.839 191.249 201.89 191.027C201.94 190.808 201.957 190.544 201.957 190.232V186.832ZM164.571 232.761L164.571 232.761L164.567 232.76C164.121 232.658 163.968 232.572 163.883 232.432C163.836 232.355 163.798 232.241 163.774 232.054C163.749 231.867 163.741 231.625 163.741 231.304V226.862H185.273V232.728C182.093 233.314 178.975 233.638 175.663 233.638C170.768 233.638 167.259 233.433 164.571 232.761Z" fill="white" stroke="white" stroke-width="0.5"/>
<path d="M106.4 199.57C111.011 202.745 115.995 207.211 119.864 211.48L119.99 211.618L120.158 211.537C121.161 211.053 122.066 210.462 122.751 209.839C123.426 209.225 123.916 208.552 124.034 207.894C124.264 206.888 123.785 205.786 122.674 204.675C119.432 201.433 113.863 196.998 108.925 193.931C110.185 190.086 110.847 186.042 110.847 181.8C110.847 181.353 110.784 180.971 110.445 180.749C110.29 180.648 110.098 180.596 109.885 180.567C109.67 180.538 109.41 180.53 109.103 180.53C109.103 180.53 109.102 180.53 109.101 180.53L104.209 180.462L103.955 180.458V180.712C103.955 186.932 102.705 192.143 100.161 196.767C97.6165 201.393 93.7688 205.448 88.5518 209.344L88.333 209.507L88.5149 209.711L91.3688 212.904C91.5624 213.133 91.751 213.312 91.9546 213.423C92.1682 213.541 92.3883 213.578 92.626 213.539C92.8532 213.502 93.0862 213.397 93.3366 213.253C93.5885 213.108 93.8773 212.91 94.2165 212.673C94.2166 212.673 94.2166 212.673 94.2167 212.673L106.4 199.57ZM101.009 216.434H100.759V216.684V220.016C100.759 220.63 100.839 221.106 101.162 221.406C101.48 221.701 101.966 221.762 102.573 221.762H130.475V236.472C130.475 237.798 131.147 238.627 132.037 239.073C132.722 239.452 133.707 239.475 134.658 239.355C135.624 239.233 136.613 238.955 137.342 238.678L137.503 238.616V238.444V218.588C137.503 217.839 137.325 217.276 136.897 216.91C136.479 216.553 135.876 216.434 135.145 216.434H101.009ZM137.329 213.454L137.503 213.399V213.216V180.236C137.503 179.683 137.421 179.248 137.129 178.968C136.839 178.69 136.407 178.626 135.893 178.626H130.725H130.475V178.876V211.244C130.475 211.894 130.62 212.433 130.886 212.87C131.152 213.307 131.53 213.626 131.974 213.848C132.657 214.189 133.64 214.196 134.598 214.076C135.57 213.955 136.572 213.695 137.329 213.454Z" fill="white" stroke="white" stroke-width="0.5"/>
<path d="M85.97 205.26V205.01H85.72H59.722V193.836C59.722 193.286 59.641 192.859 59.3397 192.594C59.0483 192.338 58.6152 192.294 58.112 192.294H52.944H52.694V192.544V205.01H32H31.75V205.26V208.524C31.75 209.128 31.81 209.606 32.1122 209.908C32.4145 210.21 32.8916 210.27 33.496 210.27H84.224C84.8284 210.27 85.3055 210.21 85.6078 209.908C85.91 209.606 85.97 209.128 85.97 208.524V205.26ZM40.976 179.782H40.726V180.032V183.296V183.311C40.726 183.655 40.726 183.938 40.7497 184.159C40.7737 184.381 40.8255 184.59 40.9699 184.748C41.1172 184.909 41.3208 184.975 41.5431 185.007C41.7646 185.038 42.0507 185.042 42.404 185.042H69.9058C70.085 191.014 69.4715 195.418 67.9382 200.151L67.8505 200.422L68.1302 200.474L72.1422 201.222L72.1422 201.222L72.1469 201.223C72.5567 201.291 72.8894 201.332 73.1613 201.33C73.4354 201.328 73.6713 201.281 73.8708 201.152C74.0705 201.023 74.2023 200.831 74.3082 200.603C74.4125 200.378 74.5023 200.093 74.6035 199.756L74.6037 199.755C75.9034 195.377 76.654 191.409 76.654 183.024C76.654 181.855 76.4682 181.023 75.9754 180.491C75.4768 179.953 74.722 179.782 73.752 179.782H40.976ZM74.75 227.632C74.75 223.577 73.0658 220.343 70.234 218.128C67.4085 215.917 63.4567 214.734 58.928 214.734C54.3992 214.734 50.4641 215.917 47.6554 218.128C44.8405 220.343 43.174 223.578 43.174 227.632C43.174 231.652 44.8408 234.887 47.655 237.11C50.4634 239.329 54.3984 240.53 58.928 240.53C63.4575 240.53 67.4092 239.329 70.2344 237.111C73.0654 234.887 74.75 231.653 74.75 227.632ZM68.062 227.632C68.062 231.934 64.2829 234.998 58.928 234.998C53.5731 234.998 49.794 231.934 49.794 227.632C49.794 225.433 50.7432 223.6 52.3523 222.311C53.9655 221.018 56.253 220.266 58.928 220.266C61.603 220.266 63.8905 221.018 65.5037 222.311C67.1128 223.6 68.062 225.433 68.062 227.632Z" fill="white" stroke="white" stroke-width="0.5"/>
</svg>
