<svg width="234" height="267" viewBox="0 0 234 267" fill="none" xmlns="http://www.w3.org/2000/svg">
<path d="M0 27.5344C0 12.3276 12.0044 0 26.8125 0H207.187C221.996 0 234 12.3276 234 27.5344V239.466C234 254.672 221.996 267 207.187 267H26.8125C12.0044 267 0 254.672 0 239.466V27.5344Z" fill="#8CC63F"/>
<path d="M6 28.6909C6 16.1591 15.5008 6 27.2206 6H206.779C218.499 6 228 16.1591 228 28.6909V150H6V28.6909Z" fill="white"/>
<g clip-path="url(#clip0_4_47)">
<path d="M145.344 90.2051C143.853 90.2051 142.683 90.4117 141.628 90.848C137.499 92.5012 135.458 97.5756 135.619 101.502C135.779 105.52 138.348 107.931 142.477 108C145.023 108.046 147.34 107.082 149.014 105.337C151.078 103.201 152.271 99.8947 152.134 96.7261C151.95 92.639 149.381 90.2051 145.344 90.2051ZM139.633 101.823C139.38 98.8155 140.917 93.213 144.908 92.8686C145 92.8456 145.069 92.8456 145.138 92.8456C147.477 92.9145 148.005 95.0499 148.12 96.3357C148.372 99.2977 146.766 104.992 142.867 105.337C142.798 105.337 142.729 105.337 142.66 105.359C140.183 105.291 139.701 102.88 139.633 101.823Z" fill="#231816"/>
<path d="M187.159 91.0317C186.402 90.5725 185.416 90.274 184.361 90.2051C184.132 90.1821 183.925 90.1821 183.696 90.2051C182.48 90.1821 181.219 90.4117 179.957 90.9169C176.241 92.4094 173.718 96.152 173.489 100.469C173.374 102.627 173.97 104.51 175.209 105.911C176.333 107.173 177.961 107.793 179.659 107.908C179.659 107.908 179.98 107.931 180.507 107.931C181.608 107.954 184.109 107.816 185.898 106.393C186.815 105.658 187.091 104.005 186.357 103.086C186.357 103.086 183.994 104.992 181.356 105.107C181.035 105.107 180.714 105.084 180.393 105.015C177.594 104.51 177.365 101.823 177.365 101.112C177.548 101.112 177.732 101.112 177.893 101.112C181.654 101.112 185.026 100.101 186.907 98.4252C188.123 97.346 188.834 96.3587 188.948 94.4759C189.109 92.1109 187.159 91.0317 187.159 91.0317ZM177.64 98.7007C178.214 96.1291 179.865 94.4988 180.484 94.0396C181.448 93.3737 183.627 92.3405 184.957 93.3508C185.278 93.6033 185.485 94.1315 185.439 94.6366C185.37 95.6239 184.522 96.6342 183.168 97.3919C181.264 98.4711 179.292 98.6778 178.122 98.6778C177.915 98.7237 177.755 98.7237 177.64 98.7007Z" fill="#231816"/>
<path d="M51.1163 80.2169C50.864 80.2169 50.6346 80.2169 50.4052 80.2169C46.8958 80.2169 44.7626 80.6761 44.7626 80.6761L40.0604 107.403H42.4C43.5239 107.403 44.3038 106.875 44.5332 105.543C44.7167 104.51 46.07 96.7719 46.1618 96.2668C47.1022 96.3127 47.9738 96.3586 48.9831 96.3586C55.3139 96.3357 59.1215 92.3864 59.8555 88.437C60.8877 82.8345 56.3461 80.2858 51.1163 80.2169ZM46.6893 93.2359L48.4555 83.2478C48.4555 83.2478 49.1437 83.0641 50.4511 83.0411C50.6575 83.0411 50.864 83.0411 51.0934 83.0641C53.6394 83.2019 56.392 84.3729 55.5662 88.2993C55.2221 89.9525 54.0064 91.5598 52.6072 92.3864C50.5658 93.5803 47.4463 93.3278 46.6893 93.2359Z" fill="#231816"/>
<path d="M110.089 90.4117C106.855 90.1591 104.997 92.2256 103.804 94.1314C103.689 92.9145 103.299 91.996 102.634 91.3531C101.992 90.7102 101.097 90.4117 100.088 90.3887C97.2897 90.3199 95.4777 92.1338 94.1014 94.6136C94.1243 94.5218 94.1243 94.4069 94.1473 94.3151C94.3996 92.5701 94.2849 91.9042 93.7573 91.2153C93.7573 91.2153 93.2756 90.5265 91.9223 90.5954C91.4406 90.5724 90.7984 90.6643 90.0185 90.9168C90.4773 91.422 90.4773 92.3864 90.0414 95.3254C90.0185 95.5091 88.0917 106.599 88.0917 106.599C88.0917 106.599 87.9771 107.357 88.7569 107.357H91.7847C91.7847 107.357 92.1746 105.038 92.2664 104.648C92.6105 103.109 92.8628 101.502 93.8261 99.2518C95.7988 94.6136 98.8724 92.7078 99.8129 93.787C100.134 94.1544 100.18 95.0269 99.9734 96.2898L98.1614 106.622C98.1614 106.622 98.0467 107.38 98.8265 107.38H101.831L102.198 105.107C102.841 101.226 103.758 99.0451 103.758 99.0451C105.501 94.8662 107.841 93.1211 108.85 93.4426C109.103 93.5344 109.515 93.764 109.699 94.5447C109.791 95.0269 109.814 95.8076 109.653 96.7031C109.493 97.92 108.713 101.295 108.369 103.844C108.139 105.589 108.231 106.255 108.759 106.944C108.759 106.944 109.24 107.633 110.594 107.564C111.075 107.587 111.717 107.495 112.497 107.219C112.062 106.714 111.993 105.635 112.451 102.788C112.727 101.066 113.14 99.1829 113.14 99.1829C113.713 96.4275 113.897 94.0855 113.3 92.6389C112.566 90.9168 110.846 90.4806 110.089 90.4117Z" fill="#231816"/>
<path d="M167.02 90.4118C163.809 90.1592 161.79 92.1798 160.368 94.6596C160.391 94.5448 160.391 94.43 160.414 94.3381C160.666 92.5931 160.529 91.7894 160.024 91.2384C159.084 90.1821 157.065 90.6643 156.285 90.9399C156.744 91.445 156.744 92.4094 156.308 95.3484C156.239 95.7387 156.194 96.175 156.102 96.5654L154.359 106.622C154.359 106.622 154.244 107.38 155.024 107.38H158.029C158.029 107.38 158.419 105.061 158.51 104.671C158.854 103.132 159.244 101.479 160.185 99.2059C162.134 94.5218 165.002 93.0752 165.896 93.4656C166.263 93.6263 166.516 93.9937 166.63 94.5448C166.722 95.027 166.745 95.8076 166.584 96.7031C166.424 97.9201 165.644 101.295 165.3 103.844C165.047 105.589 165.162 106.255 165.69 106.944C165.69 106.944 166.171 107.633 167.525 107.564C168.006 107.587 168.626 107.495 169.429 107.219C168.97 106.714 168.924 105.635 169.383 102.788C169.658 101.066 170.071 99.1829 170.071 99.1829C170.644 96.4276 170.828 94.0855 170.231 92.639C169.474 90.9169 167.708 90.4577 167.02 90.4118Z" fill="#231816"/>
<path d="M74.5127 91.0546C73.3887 91.1235 71.9895 91.2383 71.9895 91.2383L71.6455 93.213C71.5308 93.833 71.3932 94.4988 71.2555 95.1647C70.9803 96.2668 70.5903 97.4838 69.971 98.9533C67.9984 103.591 65.3606 104.923 64.3743 104.717C64.0531 104.648 63.7091 104.349 63.5256 103.591C63.4338 103.109 63.4109 102.306 63.5714 101.433C63.732 100.216 64.5119 96.8409 64.8559 94.2922C65.0853 92.5471 64.9936 91.8813 64.466 91.1924C64.466 91.1924 63.9843 90.5036 62.631 90.5495C62.1493 90.5495 61.53 90.6184 60.7272 90.8939C61.1859 91.3991 61.2318 92.4782 60.773 95.3254C60.4978 97.0705 60.3602 97.4379 60.0849 98.9303C59.7867 100.607 59.4656 102.42 59.6032 104.074C59.7638 106.14 61.1859 107.541 63.1356 107.747C66.2322 108.069 68.3654 105.979 69.7875 103.569C69.7875 103.66 69.7646 103.729 69.7417 103.821C69.5123 105.566 69.604 106.232 70.1316 106.921C70.1316 106.921 70.6133 107.61 71.9666 107.541C72.4483 107.564 73.0905 107.472 73.8704 107.196C73.4117 106.691 73.4117 105.727 73.8475 102.788C73.9163 102.397 73.9622 101.961 74.0539 101.571L75.1549 95.1647L75.6596 92.3405C75.7742 91.6516 75.5449 91.0087 74.5127 91.0546Z" fill="#231816"/>
<path d="M132.247 91.0546C131.123 91.1235 129.724 91.2383 129.724 91.2383L129.379 93.213C129.265 93.833 129.127 94.4988 128.99 95.1647C128.714 96.2668 128.347 97.4838 127.705 98.9533C125.732 103.591 123.095 104.923 122.108 104.717C121.787 104.648 121.443 104.349 121.26 103.591C121.168 103.109 121.145 102.306 121.305 101.433C121.466 100.216 122.246 96.8409 122.59 94.2922C122.842 92.5471 122.728 91.8813 122.223 91.1924C122.223 91.1924 121.741 90.5036 120.388 90.5495C119.906 90.5495 119.287 90.6184 118.484 90.8939C118.943 91.3991 118.989 92.4782 118.53 95.3254C118.255 97.0705 118.117 97.4379 117.842 98.9303C117.544 100.607 117.223 102.42 117.36 104.074C117.521 106.14 118.943 107.541 120.893 107.747C123.989 108.069 126.122 105.979 127.544 103.569L127.499 103.821C127.269 105.566 127.361 106.232 127.889 106.921C127.889 106.921 128.347 107.61 129.724 107.541C130.205 107.564 130.847 107.472 131.627 107.196C131.169 106.691 131.169 105.727 131.604 102.788C131.673 102.397 131.719 101.961 131.811 101.571L132.912 95.1647L133.416 92.3405C133.508 91.6516 133.279 91.0087 132.247 91.0546Z" fill="#231816"/>
<path d="M86.3944 79.9874C86.3026 79.9874 86.1879 79.9874 86.0732 80.0103L83.0225 80.6532L78.8708 104.166C78.6644 105.497 78.7332 106.048 79.0085 106.576C79.2608 107.036 79.6507 107.288 80.0865 107.449C80.5453 107.587 81.0499 107.633 81.4628 107.61C82.2656 107.633 82.9078 107.449 82.9078 107.449C82.9078 107.449 82.495 106.163 82.839 104.12L86.8531 81.2732C86.9907 80.6073 87.0596 79.9874 86.3944 79.9874Z" fill="#231816"/>
<path d="M116.511 72.4331C82.5179 72.4331 52.1714 64.0982 31.6423 51.3318C31.4817 51.2399 31.3441 51.1251 31.1835 51.0103C31 50.8725 30.9541 50.597 31.0459 50.3674C31.1376 50.1378 31.3899 49.9541 31.6423 50C31.8258 50.0459 32.0322 50.0919 32.1698 50.1607C54.9239 57.8757 84.3988 62.2613 116.489 62.2613C148.578 62.2613 178.053 57.8987 200.784 50.1607C200.968 50.1148 201.174 50.0459 201.358 50C201.61 49.9541 201.839 50.1148 201.954 50.3674C202.023 50.597 202 50.8725 201.794 51.0103C201.656 51.1251 201.518 51.217 201.358 51.3088C180.851 64.1211 150.482 72.4331 116.511 72.4331Z" fill="#80C342"/>
<path d="M145.344 90.2051C143.853 90.2051 142.683 90.4117 141.628 90.848C137.499 92.5012 135.458 97.5756 135.619 101.502C135.779 105.52 138.348 107.931 142.477 108C145.023 108.046 147.34 107.082 149.014 105.337C151.078 103.201 152.271 99.8947 152.134 96.7261C151.95 92.639 149.381 90.2051 145.344 90.2051ZM139.633 101.823C139.38 98.8155 140.917 93.213 144.908 92.8686C145 92.8456 145.069 92.8456 145.138 92.8456C147.477 92.9145 148.005 95.0499 148.12 96.3357C148.372 99.2977 146.766 104.992 142.867 105.337C142.798 105.337 142.729 105.337 142.66 105.359C140.183 105.291 139.701 102.88 139.633 101.823Z" fill="#231816"/>
<path d="M187.159 91.0317C186.402 90.5725 185.416 90.274 184.361 90.2051C184.132 90.1821 183.925 90.1821 183.696 90.2051C182.48 90.1821 181.219 90.4117 179.957 90.9169C176.241 92.4094 173.718 96.152 173.489 100.469C173.374 102.627 173.97 104.51 175.209 105.911C176.333 107.173 177.961 107.793 179.659 107.908C179.659 107.908 179.98 107.931 180.507 107.931C181.608 107.954 184.109 107.816 185.898 106.393C186.815 105.658 187.091 104.005 186.357 103.086C186.357 103.086 183.994 104.992 181.356 105.107C181.035 105.107 180.714 105.084 180.393 105.015C177.594 104.51 177.365 101.823 177.365 101.112C177.548 101.112 177.732 101.112 177.893 101.112C181.654 101.112 185.026 100.101 186.907 98.4252C188.123 97.346 188.834 96.3587 188.948 94.4759C189.109 92.1109 187.159 91.0317 187.159 91.0317ZM177.64 98.7007C178.214 96.1291 179.865 94.4988 180.484 94.0396C181.448 93.3737 183.627 92.3405 184.957 93.3508C185.278 93.6033 185.485 94.1315 185.439 94.6366C185.37 95.6239 184.522 96.6342 183.168 97.3919C181.264 98.4711 179.292 98.6778 178.122 98.6778C177.915 98.7237 177.755 98.7237 177.64 98.7007Z" fill="#231816"/>
<path d="M51.1163 80.2169C50.864 80.2169 50.6346 80.2169 50.4052 80.2169C46.8958 80.2169 44.7626 80.6761 44.7626 80.6761L40.0604 107.403H42.4C43.5239 107.403 44.3038 106.875 44.5332 105.543C44.7167 104.51 46.07 96.7719 46.1618 96.2668C47.1022 96.3127 47.9738 96.3586 48.9831 96.3586C55.3139 96.3357 59.1215 92.3864 59.8555 88.437C60.8877 82.8345 56.3461 80.2858 51.1163 80.2169ZM46.6893 93.2359L48.4555 83.2478C48.4555 83.2478 49.1437 83.0641 50.4511 83.0411C50.6575 83.0411 50.864 83.0411 51.0934 83.0641C53.6394 83.2019 56.392 84.3729 55.5662 88.2993C55.2221 89.9525 54.0064 91.5598 52.6072 92.3864C50.5658 93.5803 47.4463 93.3278 46.6893 93.2359Z" fill="#231816"/>
<path d="M110.089 90.4117C106.855 90.1591 104.997 92.2256 103.804 94.1314C103.689 92.9145 103.299 91.996 102.634 91.3531C101.992 90.7102 101.097 90.4117 100.088 90.3887C97.2897 90.3199 95.4777 92.1338 94.1014 94.6136C94.1243 94.5218 94.1243 94.4069 94.1473 94.3151C94.3996 92.5701 94.2849 91.9042 93.7573 91.2153C93.7573 91.2153 93.2756 90.5265 91.9223 90.5954C91.4406 90.5724 90.7984 90.6643 90.0185 90.9168C90.4773 91.422 90.4773 92.3864 90.0414 95.3254C90.0185 95.5091 88.0917 106.599 88.0917 106.599C88.0917 106.599 87.9771 107.357 88.7569 107.357H91.7847C91.7847 107.357 92.1746 105.038 92.2664 104.648C92.6105 103.109 92.8628 101.502 93.8261 99.2518C95.7988 94.6136 98.8724 92.7078 99.8129 93.787C100.134 94.1544 100.18 95.0269 99.9734 96.2898L98.1614 106.622C98.1614 106.622 98.0467 107.38 98.8265 107.38H101.831L102.198 105.107C102.841 101.226 103.758 99.0451 103.758 99.0451C105.501 94.8662 107.841 93.1211 108.85 93.4426C109.103 93.5344 109.515 93.764 109.699 94.5447C109.791 95.0269 109.814 95.8076 109.653 96.7031C109.493 97.92 108.713 101.295 108.369 103.844C108.139 105.589 108.231 106.255 108.759 106.944C108.759 106.944 109.24 107.633 110.594 107.564C111.075 107.587 111.717 107.495 112.497 107.219C112.062 106.714 111.993 105.635 112.451 102.788C112.727 101.066 113.14 99.1829 113.14 99.1829C113.713 96.4275 113.897 94.0855 113.3 92.6389C112.566 90.9168 110.846 90.4806 110.089 90.4117Z" fill="#231816"/>
<path d="M167.02 90.4118C163.809 90.1592 161.79 92.1798 160.368 94.6596C160.391 94.5448 160.391 94.43 160.414 94.3381C160.666 92.5931 160.529 91.7894 160.024 91.2384C159.084 90.1821 157.065 90.6643 156.285 90.9399C156.744 91.445 156.744 92.4094 156.308 95.3484C156.239 95.7387 156.194 96.175 156.102 96.5654L154.359 106.622C154.359 106.622 154.244 107.38 155.024 107.38H158.029C158.029 107.38 158.419 105.061 158.51 104.671C158.854 103.132 159.244 101.479 160.185 99.2059C162.134 94.5218 165.002 93.0752 165.896 93.4656C166.263 93.6263 166.516 93.9937 166.63 94.5448C166.722 95.027 166.745 95.8076 166.584 96.7031C166.424 97.9201 165.644 101.295 165.3 103.844C165.047 105.589 165.162 106.255 165.69 106.944C165.69 106.944 166.171 107.633 167.525 107.564C168.006 107.587 168.626 107.495 169.429 107.219C168.97 106.714 168.924 105.635 169.383 102.788C169.658 101.066 170.071 99.1829 170.071 99.1829C170.644 96.4276 170.828 94.0855 170.231 92.639C169.474 90.9169 167.708 90.4577 167.02 90.4118Z" fill="#231816"/>
<path d="M74.5127 91.0546C73.3887 91.1235 71.9895 91.2383 71.9895 91.2383L71.6455 93.213C71.5308 93.833 71.3932 94.4988 71.2555 95.1647C70.9803 96.2668 70.5903 97.4838 69.971 98.9533C67.9984 103.591 65.3606 104.923 64.3743 104.717C64.0531 104.648 63.7091 104.349 63.5256 103.591C63.4338 103.109 63.4109 102.306 63.5714 101.433C63.732 100.216 64.5119 96.8409 64.8559 94.2922C65.0853 92.5471 64.9936 91.8813 64.466 91.1924C64.466 91.1924 63.9843 90.5036 62.631 90.5495C62.1493 90.5495 61.53 90.6184 60.7272 90.8939C61.1859 91.3991 61.2318 92.4782 60.773 95.3254C60.4978 97.0705 60.3602 97.4379 60.0849 98.9303C59.7867 100.607 59.4656 102.42 59.6032 104.074C59.7638 106.14 61.1859 107.541 63.1356 107.747C66.2322 108.069 68.3654 105.979 69.7875 103.569C69.7875 103.66 69.7646 103.729 69.7417 103.821C69.5123 105.566 69.604 106.232 70.1316 106.921C70.1316 106.921 70.6133 107.61 71.9666 107.541C72.4483 107.564 73.0905 107.472 73.8704 107.196C73.4117 106.691 73.4117 105.727 73.8475 102.788C73.9163 102.397 73.9622 101.961 74.0539 101.571L75.1549 95.1647L75.6596 92.3405C75.7742 91.6516 75.5449 91.0087 74.5127 91.0546Z" fill="#231816"/>
<path d="M132.247 91.0546C131.123 91.1235 129.724 91.2383 129.724 91.2383L129.379 93.213C129.265 93.833 129.127 94.4988 128.99 95.1647C128.714 96.2668 128.347 97.4838 127.705 98.9533C125.732 103.591 123.095 104.923 122.108 104.717C121.787 104.648 121.443 104.349 121.26 103.591C121.168 103.109 121.145 102.306 121.305 101.433C121.466 100.216 122.246 96.8409 122.59 94.2922C122.842 92.5471 122.728 91.8813 122.223 91.1924C122.223 91.1924 121.741 90.5036 120.388 90.5495C119.906 90.5495 119.287 90.6184 118.484 90.8939C118.943 91.3991 118.989 92.4782 118.53 95.3254C118.255 97.0705 118.117 97.4379 117.842 98.9303C117.544 100.607 117.223 102.42 117.36 104.074C117.521 106.14 118.943 107.541 120.893 107.747C123.989 108.069 126.122 105.979 127.544 103.569L127.499 103.821C127.269 105.566 127.361 106.232 127.889 106.921C127.889 106.921 128.347 107.61 129.724 107.541C130.205 107.564 130.847 107.472 131.627 107.196C131.169 106.691 131.169 105.727 131.604 102.788C131.673 102.397 131.719 101.961 131.811 101.571L132.912 95.1647L133.416 92.3405C133.508 91.6516 133.279 91.0087 132.247 91.0546Z" fill="#231816"/>
<path d="M86.3944 79.9874C86.3026 79.9874 86.1879 79.9874 86.0732 80.0103L83.0225 80.6532L78.8708 104.166C78.6644 105.497 78.7332 106.048 79.0085 106.576C79.2608 107.036 79.6507 107.288 80.0865 107.449C80.5453 107.587 81.0499 107.633 81.4628 107.61C82.2656 107.633 82.9078 107.449 82.9078 107.449C82.9078 107.449 82.495 106.163 82.839 104.12L86.8531 81.2732C86.9907 80.6073 87.0596 79.9874 86.3944 79.9874Z" fill="#231816"/>
<path d="M116.511 72.4331C82.5179 72.4331 52.1714 64.0982 31.6423 51.3318C31.4817 51.2399 31.3441 51.1251 31.1835 51.0103C31 50.8725 30.9541 50.597 31.0459 50.3674C31.1376 50.1378 31.3899 49.9541 31.6423 50C31.8258 50.0459 32.0322 50.0919 32.1698 50.1607C54.9239 57.8757 84.3988 62.2613 116.489 62.2613C148.578 62.2613 178.053 57.8987 200.784 50.1607C200.968 50.1148 201.174 50.0459 201.358 50C201.61 49.9541 201.839 50.1148 201.954 50.3674C202.023 50.597 202 50.8725 201.794 51.0103C201.656 51.1251 201.518 51.217 201.358 51.3088C180.851 64.1211 150.482 72.4331 116.511 72.4331Z" fill="#80C342"/>
</g>
<path d="M179.109 203.185C175.999 199.872 170.362 195.234 165.557 191.968C166.681 188.66 167.209 185.157 167.209 181.46C167.209 181.013 167.146 180.631 166.807 180.409C166.651 180.308 166.46 180.256 166.246 180.227C166.032 180.198 165.772 180.19 165.464 180.19C165.464 180.19 165.463 180.19 165.463 180.19L160.57 180.122L160.317 180.118V180.372C160.317 186.181 159.068 190.947 156.527 195.23C153.983 199.517 150.135 203.336 144.913 207.236L144.694 207.399L144.876 207.603L147.73 210.796C147.924 211.025 148.112 211.204 148.316 211.315C148.53 211.433 148.75 211.47 148.987 211.431C149.215 211.394 149.448 211.289 149.698 211.145C149.95 211 150.239 210.802 150.578 210.565L150.578 210.565C156.216 206.605 160.281 202.373 163.023 197.672C167.443 200.98 172.422 205.446 176.152 209.842L176.272 209.983L176.442 209.909C177.479 209.46 178.385 208.921 179.071 208.341C179.752 207.764 180.24 207.126 180.394 206.473L180.394 206.472C180.625 205.473 180.225 204.371 179.109 203.185ZM179.109 203.185L178.927 203.356L179.109 203.185C179.109 203.185 179.109 203.185 179.109 203.185ZM186.79 238.608L186.8 238.612L186.811 238.615C187.546 238.836 188.51 238.794 189.454 238.649C190.406 238.501 191.371 238.243 192.127 238.002L192.301 237.947V237.764V215.868C192.301 215.313 192.218 214.868 191.933 214.573C191.646 214.274 191.214 214.19 190.691 214.19H185.523H185.273V214.44V221.466H163.741V215.868C163.741 215.313 163.658 214.871 163.385 214.576C163.108 214.275 162.692 214.19 162.199 214.19H157.031H156.781V214.44V233.072C156.781 234.753 157.035 235.84 157.75 236.593C158.454 237.334 159.564 237.703 161.121 238.075L161.122 238.075C165.231 239.034 168.928 239.17 173.963 239.17C178.013 239.17 182.329 238.769 185.922 238.166C186.031 238.254 186.154 238.325 186.278 238.387C186.44 238.468 186.618 238.539 186.785 238.606L186.79 238.608ZM201.957 186.832V186.582H201.707H192.165V180.236C192.165 179.683 192.083 179.248 191.79 178.968C191.501 178.69 191.068 178.626 190.555 178.626H185.387H185.137V178.876V209.136C185.137 209.786 185.281 210.325 185.547 210.762C185.813 211.199 186.191 211.518 186.635 211.74C187.318 212.081 188.301 212.088 189.26 211.968C190.232 211.847 191.233 211.587 191.991 211.346L192.165 211.291V211.108V203.266H200.279C200.572 203.266 200.826 203.253 201.039 203.21C201.255 203.166 201.448 203.087 201.599 202.941C201.752 202.795 201.839 202.605 201.89 202.383C201.94 202.164 201.957 201.9 201.957 201.588V198.188V197.938H201.707H192.165V191.91H200.279C200.572 191.91 200.826 191.897 201.039 191.854C201.255 191.81 201.448 191.731 201.599 191.585C201.752 191.439 201.839 191.249 201.89 191.027C201.94 190.808 201.957 190.544 201.957 190.232V186.832ZM164.571 232.761L164.571 232.761L164.567 232.76C164.121 232.658 163.968 232.572 163.883 232.432C163.836 232.355 163.798 232.241 163.774 232.054C163.749 231.867 163.741 231.625 163.741 231.304V226.862H185.273V232.728C182.093 233.314 178.975 233.638 175.663 233.638C170.768 233.638 167.259 233.433 164.571 232.761Z" fill="white" stroke="white" stroke-width="0.5"/>
<path d="M106.4 199.57C111.011 202.745 115.995 207.211 119.864 211.48L119.99 211.618L120.158 211.537C121.161 211.053 122.066 210.462 122.751 209.839C123.426 209.225 123.916 208.552 124.034 207.894C124.264 206.888 123.785 205.786 122.674 204.675C119.432 201.433 113.863 196.998 108.925 193.931C110.185 190.086 110.847 186.042 110.847 181.8C110.847 181.353 110.784 180.971 110.445 180.749C110.29 180.648 110.098 180.596 109.885 180.567C109.67 180.538 109.41 180.53 109.103 180.53C109.103 180.53 109.102 180.53 109.101 180.53L104.209 180.462L103.955 180.458V180.712C103.955 186.932 102.705 192.143 100.161 196.767C97.6165 201.393 93.7688 205.448 88.5518 209.344L88.3331 209.507L88.515 209.711L91.3688 212.904C91.5625 213.133 91.751 213.312 91.9546 213.423C92.1682 213.541 92.3883 213.578 92.6261 213.539C92.8533 213.502 93.0862 213.397 93.3367 213.253C93.5885 213.108 93.8773 212.91 94.2165 212.673C94.2166 212.673 94.2167 212.673 94.2168 212.673L106.4 199.57ZM101.009 216.434H100.759V216.684V220.016C100.759 220.63 100.839 221.106 101.162 221.406C101.48 221.701 101.966 221.762 102.573 221.762H130.475V236.472C130.475 237.798 131.147 238.627 132.037 239.073C132.722 239.452 133.707 239.475 134.658 239.355C135.625 239.233 136.613 238.955 137.342 238.678L137.503 238.616V238.444V218.588C137.503 217.839 137.325 217.276 136.897 216.91C136.479 216.553 135.876 216.434 135.145 216.434H101.009ZM137.329 213.454L137.503 213.399V213.216V180.236C137.503 179.683 137.421 179.248 137.129 178.968C136.839 178.69 136.407 178.626 135.893 178.626H130.725H130.475V178.876V211.244C130.475 211.894 130.62 212.433 130.886 212.87C131.152 213.307 131.53 213.626 131.974 213.848C132.657 214.189 133.64 214.196 134.598 214.076C135.57 213.955 136.572 213.695 137.329 213.454Z" fill="white" stroke="white" stroke-width="0.5"/>
<path d="M85.97 205.26V205.01H85.72H59.722V193.836C59.722 193.286 59.641 192.859 59.3397 192.594C59.0483 192.338 58.6152 192.294 58.112 192.294H52.944H52.694V192.544V205.01H32H31.75V205.26V208.524C31.75 209.128 31.81 209.606 32.1122 209.908C32.4145 210.21 32.8916 210.27 33.496 210.27H84.224C84.8284 210.27 85.3055 210.21 85.6078 209.908C85.91 209.606 85.97 209.128 85.97 208.524V205.26ZM40.976 179.782H40.726V180.032V183.296V183.311C40.726 183.655 40.726 183.938 40.7497 184.159C40.7737 184.381 40.8255 184.59 40.9699 184.748C41.1172 184.909 41.3208 184.975 41.5431 185.007C41.7646 185.038 42.0507 185.042 42.404 185.042H69.9058C70.085 191.014 69.4715 195.418 67.9382 200.151L67.8505 200.422L68.1302 200.474L72.1422 201.222L72.1422 201.222L72.1469 201.223C72.5567 201.291 72.8894 201.332 73.1613 201.33C73.4354 201.328 73.6713 201.281 73.8708 201.152C74.0705 201.023 74.2023 200.831 74.3082 200.603C74.4125 200.378 74.5023 200.093 74.6035 199.756L74.6037 199.755C75.9034 195.377 76.654 191.409 76.654 183.024C76.654 181.855 76.4682 181.023 75.9754 180.491C75.4768 179.953 74.722 179.782 73.752 179.782H40.976ZM74.75 227.632C74.75 223.577 73.0658 220.343 70.234 218.128C67.4085 215.917 63.4567 214.734 58.928 214.734C54.3992 214.734 50.4641 215.917 47.6554 218.128C44.8405 220.343 43.174 223.578 43.174 227.632C43.174 231.652 44.8408 234.887 47.655 237.11C50.4634 239.329 54.3984 240.53 58.928 240.53C63.4575 240.53 67.4092 239.329 70.2344 237.111C73.0654 234.887 74.75 231.653 74.75 227.632ZM68.062 227.632C68.062 231.934 64.2829 234.998 58.928 234.998C53.5731 234.998 49.794 231.934 49.794 227.632C49.794 225.433 50.7432 223.6 52.3523 222.311C53.9655 221.018 56.253 220.266 58.928 220.266C61.603 220.266 63.8905 221.018 65.5037 222.311C67.1128 223.6 68.062 225.433 68.062 227.632Z" fill="white" stroke="white" stroke-width="0.5"/>
<defs>
<clipPath id="clip0_4_47">
<rect width="171" height="58" fill="white" transform="translate(31 50)"/>
</clipPath>
</defs>
</svg>
