<svg width="90" height="38" viewBox="0 0 90 38" fill="none" xmlns="http://www.w3.org/2000/svg">

<style>
.mo1{animation:bounce_ani2 2.6s ease-in-out 0s infinite both;}
.mo2{animation:bounce_ani 2.6s ease-in-out 0.3s infinite both;}
.mo11{animation:fill1 2.6s ease-in-out 0s infinite both;}
.mo12{animation:fill1 2.6s ease-in-out 0.3s infinite both;}

.mo4{animation:stroke1 3s linear 0s infinite forwards;fill:transparent;stroke-dasharray:326px;}
.mo5{animation:stroke2 3s linear 0s infinite forwards;fill:transparent;stroke-dasharray:326px;}
.mo6{animation:stroke1 3s linear 0s infinite forwards;fill:transparent;stroke-dasharray:326px;}


@keyframes bounce_ani {
0%, 14% ,100% {transform:translate(0, 0);}
10% {transform:translate(0, -4px)}
}
@keyframes bounce_ani2 {
0%, 14% ,100% {transform:translate(0, 0);opacity:0;}
10% {transform:translate(0, -4px);opacity:1;}
}
@keyframes fill1 {
0%, 14% ,100% {fill:#565656;}
10% {fill:#80C342;}
}

@keyframes stroke1 {
  0% {
      stroke:#80C342;
      stroke-width: 2px;
      stroke-dashoffset: 326px;
  }
  30% {
      fill: transparent;
  }
  38% {
      stroke:#80C342;
      stroke-width: 2px;
  }
  60%, 100% {
      fill: #80C342;
      stroke-width: 0px;
      stroke-dashoffset: 0px;
  }
}
@keyframes stroke2 {
  0% {
      stroke:#009333;
      stroke-width: 2px;
      stroke-dashoffset: 326px;
  }
  30% {
      fill: transparent;
  }
  38% {
      stroke:#009333;
      stroke-width: 2px;
  }
  60%, 100% {
      fill: #009333;
      stroke-width: 0px;
      stroke-dashoffset: 0px;
  }
}
</style>


<g id="ani_ai3 2">
<path id="Rectangle 151" d="M0.5 20C0.5 9.23045 9.23045 0.5 20 0.5H89.5V18C89.5 28.7696 80.7695 37.5 70 37.5H0.5V20Z" stroke="#E0E0E0"/>
<g id="Group">
<circle class="mo1" cx="50" cy="10" r="2" fill="#69A822"/>
<path class="mo2" id="Vector_2" d="M66.9709 10.9315C66.9256 13.8071 62.5077 13.673 62.6596 10.9315C62.5397 8.34946 66.891 8.2153 66.9709 10.9315Z" fill="url(#paint0_linear_284_10790)"/>

<g id="Group_2">
<path class="mo4" id="Vector" d="M26.6197 13.8456L26.8628 11.2389C26.967 10.0538 27.0394 9.22061 27.051 9.04463C27.0568 8.94564 27.051 8.84665 27.0278 8.75591C26.9699 8.51668 26.7934 8.36545 26.7934 8.36545C26.5821 8.16472 26.0813 7.87324 25.0133 8.06298C24.9757 8.06847 24.5704 8.14547 24.2173 8.3462C24.0957 8.41769 23.8092 8.59917 23.6616 8.8439C23.5718 9.00063 23.4127 9.35535 23.3548 9.96854L23.1261 13.6917L22.9322 16.6669C22.9322 16.6669 22.8019 18.5422 22.7527 19.0839C22.6601 20.0958 22.5472 21.3991 22.4343 22.785C22.4343 22.785 19.6991 22.906 19.2736 22.9252C19.0739 22.9362 18.0145 23.0242 18.0029 23.6402C18.0029 23.6759 18.0029 23.7117 18.0116 23.7529C18.0666 24.1901 18.2866 24.4898 18.5673 24.6961C18.6339 24.7428 18.7294 24.8006 18.7526 24.8143C19.4473 25.213 20.4401 25.1965 20.4401 25.1965C20.4401 25.1965 21.1347 25.1965 22.2578 25.1965L21.9944 28.8152C21.9799 29.0681 21.9654 29.3074 21.951 29.5356C21.9307 29.9068 21.9191 30.3193 22.0609 30.5585C22.1709 30.7427 22.3446 30.7702 22.5067 30.7895C23.1637 30.8637 23.9018 30.8939 24.4691 30.113C24.9814 29.4091 25.1551 28.6089 25.3056 27.5585C25.3404 27.3193 25.4069 26.7611 25.4764 26.1397L26.2521 17.7695C26.3679 16.8374 27.0828 16.7026 27.3578 16.6861C27.3578 16.6861 27.4475 16.6834 27.5633 16.6861L26.6168 13.8511L26.6197 13.8456Z" fill="#80C342"/>
<path class="mo5" id="Vector_3" d="M39.1985 14.3984C38.7846 14.3791 37.6644 14.3296 36.168 14.2636L36.4777 10.0098C36.4921 9.75683 36.5066 9.51761 36.5182 9.28938C36.5385 8.91817 36.55 8.50571 36.4082 8.26648C36.2982 8.08225 36.1246 8.05475 35.9625 8.0355C35.3054 7.96126 34.5673 7.93101 34 8.71194C33.4877 9.41587 33.314 10.216 33.1635 11.2664C33.1288 11.5057 33.0622 12.0639 32.9928 12.6853L32.8596 14.1179C27.7364 13.8924 21.3137 13.6119 20.4193 13.5762C20.4193 13.5762 19.9041 13.5625 19.5857 13.5927C18.6623 13.7164 18.2832 14.1894 18.1269 14.5524C18.1269 14.5606 17.9619 15.0281 18.0082 15.578C18.0082 15.578 18.0371 15.9822 18.1877 16.1994C18.3295 16.3864 18.6392 16.6421 19.2991 16.6669C19.3628 16.6669 22.8159 16.6669 26.7379 16.6669C26.7379 16.6669 28.9376 16.6971 28.9753 16.6999C28.9753 16.6999 32.7467 16.6834 32.7728 19.5074C32.7728 19.5074 32.8654 21.6989 30.3009 22.3286C30.3009 22.3286 29.887 22.4523 29.1923 22.4853L31.8292 25.191L31.6063 27.5833C31.5021 28.7684 31.4298 29.6016 31.4182 29.7776C31.4124 29.8766 31.4182 29.9756 31.4413 30.0663C31.4992 30.3055 31.6758 30.4568 31.6758 30.4568C31.8871 30.6575 32.3878 30.949 33.4559 30.7592C33.4935 30.7537 33.8987 30.6767 34.2518 30.476C34.3734 30.4045 34.66 30.223 34.8076 29.9783C34.8973 29.8216 35.0565 29.4669 35.1144 28.8537L35.3402 25.1938L35.537 22.1553C35.6036 21.1572 35.6672 20.2828 35.7164 19.7383C35.7946 18.8832 35.8872 17.8163 35.9827 16.6669H38.0291C38.0291 16.6669 39.0219 16.6834 39.7166 16.2847C39.7397 16.2709 39.8352 16.2132 39.9018 16.1664C40.1826 15.9602 40.4025 15.6605 40.4575 15.2233C40.4633 15.182 40.4662 15.1463 40.4662 15.1105C40.4518 14.4946 39.3953 14.4066 39.1956 14.3956L39.1985 14.3984Z" fill="#009333"/>
<path class="mo6" id="Vector_4" d="M40.342 23.0784C40.1857 22.7127 39.8094 22.2397 38.8832 22.1187C38.5648 22.0885 38.0496 22.1022 38.0496 22.1022C37.7485 22.1132 36.8223 22.1545 35.5314 22.2095C33.8468 22.2837 29.1925 22.4872 29.1925 22.4872C28.8018 22.5092 28.44 22.4982 28.3445 22.5064C28.0434 22.5202 27.3748 22.6192 27.3198 23.2351C27.2677 23.8208 27.1404 25.1957 27.1404 25.1957C27.1404 25.1957 34.2231 25.1957 35.3404 25.1957C37.4475 25.1957 39.135 25.1957 39.1697 25.1957C39.8267 25.1709 40.1394 24.9152 40.2812 24.7282C40.4288 24.511 40.4606 24.1068 40.4606 24.1068C40.5069 23.5568 40.3449 23.0894 40.342 23.0811V23.0784Z" fill="#80C342"/>
</g>

<path class="mo11" id="Vector_6" d="M41.8311 27.8658L48.2981 10.131C48.5566 9.48799 49.0975 9.1665 49.9208 9.1665C50.7442 9.1665 51.2238 9.43989 51.429 9.98414L57.8347 27.9898C57.8854 28.124 57.912 28.2531 57.912 28.3746C57.912 28.7341 57.7601 29.0403 57.4537 29.2935C57.1473 29.5466 56.7982 29.6707 56.4038 29.6707C55.5618 29.6707 55.0289 29.3568 54.7997 28.729L53.5314 25.2104H46.1771L44.7782 28.9796C44.7408 29.1441 44.5783 29.2985 44.2985 29.4479C44.0161 29.5973 43.7096 29.6707 43.3766 29.6707C42.9023 29.6707 42.5106 29.5416 42.2041 29.2859C41.895 29.0277 41.7432 28.7163 41.7432 28.3442C41.7432 28.1898 41.7751 28.0303 41.8391 27.8658H41.8311ZM49.8995 15.1684L47.1443 22.5904H52.5801L49.8995 15.1684Z" fill="#565656"/>
<path class="mo12" id="Vector_7" d="M69.6383 29.64H61.322C60.9437 29.64 60.6213 29.5134 60.3548 29.2628C60.0883 29.0096 59.9578 28.7059 59.9578 28.3439C59.9578 27.9819 60.091 27.6908 60.3548 27.4326C60.6213 27.1744 60.941 27.0478 61.322 27.0478H64.1146V17.3754H61.354C60.9756 17.3754 60.6532 17.2463 60.3868 16.9907C60.1203 16.7325 59.9897 16.4312 59.9897 16.0794C59.9897 15.7275 60.123 15.4086 60.3868 15.1453C60.6532 14.882 60.973 14.7529 61.354 14.7529H65.5108C65.8892 14.7529 66.2116 14.8846 66.4781 15.1453C66.7445 15.4086 66.8751 15.7199 66.8751 16.0794V27.0478H69.6036C69.982 27.0478 70.3098 27.1744 70.5869 27.425C70.864 27.6781 70.9999 27.9819 70.9999 28.3439C70.9999 28.7059 70.864 29.0096 70.5949 29.2628C70.3231 29.5159 70.0033 29.64 69.6356 29.64H69.6383Z" fill="#565656" stroke="#565656" stroke-width="0.6"/>
</g>
</g>
<defs>
<linearGradient id="paint0_linear_284_10790" x1="62.6569" y1="10.9922" x2="66.9709" y2="10.9922" gradientUnits="userSpaceOnUse">
<stop offset="0.43" stop-color="#75B722"/>
<stop offset="0.57" stop-color="#69A822"/>
<stop offset="0.7" stop-color="#65A322"/>
</linearGradient>
</defs>
</svg>
